<?xml version="1.0" encoding="UTF-8"?> <svg xmlns="http://www.w3.org/2000/svg" xmlns:xlink="http://www.w3.org/1999/xlink" version="1.1" id="Capa_1" x="0px" y="0px" viewBox="0 0 512 512" style="enable-background:new 0 0 512 512;" xml:space="preserve" width="512px" height="512px"><g><g> <g> <g> <path d="M278.261,44.522h155.826c6.155,0,11.13-4.986,11.13-11.13s-4.975-11.13-11.13-11.13H278.261 c-6.155,0-11.13,4.986-11.13,11.13S272.106,44.522,278.261,44.522z" data-original="#231F20" class="active-path" data-old_color="#231F20" fill="#133C6D"></path> <path d="M278.261,222.609h155.826c6.155,0,11.13-4.986,11.13-11.13s-4.975-11.13-11.13-11.13H278.261 c-6.155,0-11.13,4.986-11.13,11.13S272.106,222.609,278.261,222.609z" data-original="#231F20" class="active-path" data-old_color="#231F20" fill="#133C6D"></path> <path d="M278.261,133.565H500.87c6.155,0,11.13-4.986,11.13-11.13c0-6.144-4.975-11.13-11.13-11.13 H278.261c-6.155,0-11.13,4.986-11.13,11.13C267.13,128.579,272.106,133.565,278.261,133.565z" data-original="#231F20" class="active-path" data-old_color="#231F20" fill="#133C6D"></path> <path d="M500.87,467.478H278.261c-6.155,0-11.13,4.975-11.13,11.13s4.975,11.13,11.13,11.13H500.87 c6.155,0,11.13-4.975,11.13-11.13S507.025,467.478,500.87,467.478z" data-original="#231F20" class="active-path" data-old_color="#231F20" fill="#133C6D"></path> <path d="M278.261,400.696h155.826c6.155,0,11.13-4.975,11.13-11.13s-4.975-11.13-11.13-11.13H278.261 c-6.155,0-11.13,4.975-11.13,11.13S272.106,400.696,278.261,400.696z" data-original="#231F20" class="active-path" data-old_color="#231F20" fill="#133C6D"></path> <path d="M500.87,289.391H278.261c-6.155,0-11.13,4.975-11.13,11.13c0,6.155,4.975,11.13,11.13,11.13 H500.87c6.155,0,11.13-4.975,11.13-11.13C512,294.367,507.025,289.391,500.87,289.391z" data-original="#231F20" class="active-path" data-old_color="#231F20" fill="#133C6D"></path> <path d="M211.478,22.261c-6.144,0-11.13,4.986-11.13,11.13v445.217c0,6.155,4.986,11.13,11.13,11.13 s11.13-4.975,11.13-11.13V33.391C222.609,27.247,217.622,22.261,211.478,22.261z" data-original="#231F20" class="active-path" data-old_color="#231F20" fill="#133C6D"></path> <path d="M153.62,262.634c0.102-0.137,0.211-0.269,0.307-0.411c0.004-0.006,0.008-0.013,0.012-0.019 c0.017-0.026,0.031-0.054,0.049-0.08c0.062-0.095,0.117-0.193,0.176-0.29c0.115-0.187,0.234-0.371,0.338-0.565 c0.013-0.024,0.023-0.049,0.035-0.073c0.007-0.013,0.013-0.028,0.02-0.041c0.026-0.05,0.048-0.102,0.074-0.153 c0.121-0.241,0.241-0.482,0.345-0.732c0.002-0.004,0.003-0.008,0.004-0.012c0.543-1.311,0.846-2.748,0.846-4.257 c0-0.704-0.073-1.391-0.198-2.059c0-0.001,0-0.002,0-0.002c-0.063-0.333-0.142-0.659-0.233-0.981 c-0.007-0.024-0.012-0.049-0.019-0.073c-0.087-0.298-0.189-0.589-0.3-0.877c-0.02-0.053-0.037-0.107-0.058-0.159 c-0.105-0.259-0.223-0.511-0.346-0.76c-0.04-0.081-0.075-0.162-0.117-0.242c-0.117-0.223-0.246-0.438-0.377-0.652 c-0.061-0.099-0.117-0.201-0.181-0.298c-0.132-0.2-0.274-0.391-0.418-0.581c-0.076-0.101-0.147-0.205-0.227-0.304 c-0.108-0.134-0.225-0.26-0.339-0.389l-55.43-66.516c-3.94-4.719-10.952-5.365-15.672-1.425 c-4.719,3.929-5.365,10.952-1.425,15.672l40.431,48.518H11.13C4.986,244.87,0,249.856,0,256c0,6.155,4.986,11.13,11.13,11.13 h109.805l-40.441,48.529c-3.929,4.73-3.295,11.743,1.425,15.683c2.081,1.725,4.608,2.571,7.123,2.571 c3.183,0,6.344-1.358,8.548-3.996l55.652-66.783c0.012-0.014,0.021-0.029,0.033-0.044c0.017-0.021,0.032-0.043,0.049-0.064 C153.429,262.899,153.522,262.765,153.62,262.634z" data-original="#231F20" class="active-path" data-old_color="#231F20" fill="#133C6D"></path> </g> </g> </g></g> </svg> 