<?xml version="1.0" encoding="UTF-8"?> <svg xmlns="http://www.w3.org/2000/svg" xmlns:xlink="http://www.w3.org/1999/xlink" version="1.1" id="Capa_1" x="0px" y="0px" viewBox="0 0 512.001 512.001" style="enable-background:new 0 0 512.001 512.001;" xml:space="preserve" width="512px" height="512px" class=""><g><g> <g> <path d="M182.361,67.145c-2.688-3.496-7.688-4.192-11.216-1.512l-168,128c-3.504,2.68-4.184,7.704-1.512,11.216 c1.576,2.064,3.96,3.152,6.376,3.152c1.688,0,3.392-0.528,4.84-1.64l168-128C184.353,75.681,185.033,70.657,182.361,67.145z" data-original="#000000" class="active-path" data-old_color="#000000" fill="#133C6D"></path> </g> </g><g> <g> <path d="M182.361,99.145c-2.688-3.504-7.688-4.192-11.216-1.512l-168,128c-3.504,2.68-4.184,7.704-1.512,11.216 c1.576,2.064,3.96,3.152,6.376,3.152c1.688,0,3.392-0.528,4.84-1.64l168-128C184.353,107.681,185.033,102.657,182.361,99.145z" data-original="#000000" class="active-path" data-old_color="#000000" fill="#133C6D"></path> </g> </g><g> <g> <path d="M359.361,201.641l-178.504-136c-3.528-2.68-8.536-1.992-11.216,1.512c-2.672,3.512-1.992,8.536,1.512,11.216l178.504,136 c1.448,1.104,3.152,1.632,4.84,1.632c2.408,0,4.792-1.088,6.376-3.144C363.545,209.345,362.865,204.321,359.361,201.641z" data-original="#000000" class="active-path" data-old_color="#000000" fill="#133C6D"></path> </g> </g><g> <g> <path d="M348.857,225.641l-168-128c-3.528-2.68-8.536-1.992-11.216,1.512c-2.672,3.512-1.992,8.536,1.512,11.216l168,128 c1.448,1.104,3.152,1.632,4.84,1.632c2.416,0,4.8-1.088,6.376-3.144C353.041,233.345,352.361,228.321,348.857,225.641z" data-original="#000000" class="active-path" data-old_color="#000000" fill="#133C6D"></path> </g> </g><g> <g> <path d="M504.001,200.001H354.505c-4.424,0-8,3.576-8,8s3.576,8,8,8h149.496c4.424,0,8-3.576,8-8S508.425,200.001,504.001,200.001 z" data-original="#000000" class="active-path" data-old_color="#000000" fill="#133C6D"></path> </g> </g><g> <g> <path d="M8.001,192.001c-4.424,0-8,3.576-8,8v32c0,4.424,3.576,8,8,8s8-3.576,8-8v-32 C16.001,195.577,12.425,192.001,8.001,192.001z" data-original="#000000" class="active-path" data-old_color="#000000" fill="#133C6D"></path> </g> </g><g> <g> <path d="M504.001,224.001h-160c-4.424,0-8,3.576-8,8s3.576,8,8,8h160c4.424,0,8-3.576,8-8S508.425,224.001,504.001,224.001z" data-original="#000000" class="active-path" data-old_color="#000000" fill="#133C6D"></path> </g> </g><g> <g> <path d="M504.001,200.001c-4.424,0-8,3.576-8,8v24c0,4.424,3.576,8,8,8s8-3.576,8-8v-24 C512.001,203.577,508.425,200.001,504.001,200.001z" data-original="#000000" class="active-path" data-old_color="#000000" fill="#133C6D"></path> </g> </g><g> <g> <path d="M24.001,211.817c-4.424,0-8,3.576-8,8v220.184c0,4.424,3.576,8,8,8s8-3.576,8-8V219.817 C32.001,215.393,28.425,211.817,24.001,211.817z" data-original="#000000" class="active-path" data-old_color="#000000" fill="#133C6D"></path> </g> </g><g> <g> <path d="M328.001,211.817c-4.424,0-8,3.576-8,8v220.184c0,4.424,3.576,8,8,8s8-3.576,8-8V219.817 C336.001,215.393,332.425,211.817,328.001,211.817z" data-original="#000000" class="active-path" data-old_color="#000000" fill="#133C6D"></path> </g> </g><g> <g> <path d="M488.001,224.001c-4.424,0-8,3.576-8,8v208c0,4.424,3.576,8,8,8s8-3.576,8-8v-208 C496.001,227.577,492.425,224.001,488.001,224.001z" data-original="#000000" class="active-path" data-old_color="#000000" fill="#133C6D"></path> </g> </g><g> <g> <path d="M510.809,203.801l-64-104c-2.312-3.768-7.232-4.936-11.008-2.616c-3.76,2.312-4.928,7.24-2.616,11.008l64,104 c1.512,2.456,4.136,3.808,6.824,3.808c1.432,0,2.872-0.384,4.184-1.192C511.953,212.497,513.121,207.569,510.809,203.801z" data-original="#000000" class="active-path" data-old_color="#000000" fill="#133C6D"></path> </g> </g><g> <g> <path d="M440.001,96.001h-222c-4.424,0-8,3.576-8,8s3.576,8,8,8h222c4.424,0,8-3.576,8-8S444.425,96.001,440.001,96.001z" data-original="#000000" class="active-path" data-old_color="#000000" fill="#133C6D"></path> </g> </g><g> <g> <path d="M176.001,184.001c-22.056,0-40,17.944-40,40c0,22.056,17.944,40,40,40c22.056,0,40-17.944,40-40 C216.001,201.945,198.057,184.001,176.001,184.001z M176.001,248.001c-13.232,0-24-10.768-24-24s10.768-24,24-24s24,10.768,24,24 S189.233,248.001,176.001,248.001z" data-original="#000000" class="active-path" data-old_color="#000000" fill="#133C6D"></path> </g> </g><g> <g> <path d="M152.001,336.001c-4.424,0-8,3.576-8,8v96c0,4.424,3.576,8,8,8s8-3.576,8-8v-96 C160.001,339.577,156.425,336.001,152.001,336.001z" data-original="#000000" class="active-path" data-old_color="#000000" fill="#133C6D"></path> </g> </g><g> <g> <path d="M200.001,336.001h-48c-4.424,0-8,3.576-8,8s3.576,8,8,8h48c4.424,0,8-3.576,8-8S204.425,336.001,200.001,336.001z" data-original="#000000" class="active-path" data-old_color="#000000" fill="#133C6D"></path> </g> </g><g> <g> <path d="M200.001,336.001c-4.424,0-8,3.576-8,8v96c0,4.424,3.576,8,8,8s8-3.576,8-8v-96 C208.001,339.577,204.425,336.001,200.001,336.001z" data-original="#000000" class="active-path" data-old_color="#000000" fill="#133C6D"></path> </g> </g><g> <g> <path d="M120.001,296.001h-64c-4.424,0-8,3.576-8,8v64c0,4.424,3.576,8,8,8h64c4.424,0,8-3.576,8-8v-64 C128.001,299.577,124.425,296.001,120.001,296.001z M112.001,360.001h-48v-48h48V360.001z" data-original="#000000" class="active-path" data-old_color="#000000" fill="#133C6D"></path> </g> </g><g> <g> <path d="M296.001,296.001h-64c-4.424,0-8,3.576-8,8v64c0,4.424,3.576,8,8,8h64c4.424,0,8-3.576,8-8v-64 C304.001,299.577,300.425,296.001,296.001,296.001z M288.001,360.001h-48v-48h48V360.001z" data-original="#000000" class="active-path" data-old_color="#000000" fill="#133C6D"></path> </g> </g><g> <g> <path d="M440.001,296.001h-64c-4.424,0-8,3.576-8,8v64c0,4.424,3.576,8,8,8h64c4.424,0,8-3.576,8-8v-64 C448.001,299.577,444.425,296.001,440.001,296.001z M432.001,360.001h-48v-48h48V360.001z" data-original="#000000" class="active-path" data-old_color="#000000" fill="#133C6D"></path> </g> </g><g> <g> <path d="M176.001,184.001c-4.424,0-8,3.576-8,8v64c0,4.424,3.576,8,8,8s8-3.576,8-8v-64 C184.001,187.577,180.425,184.001,176.001,184.001z" data-original="#000000" class="active-path" data-old_color="#000000" fill="#133C6D"></path> </g> </g><g> <g> <path d="M208.001,216.001h-64c-4.424,0-8,3.576-8,8s3.576,8,8,8h64c4.424,0,8-3.576,8-8S212.425,216.001,208.001,216.001z" data-original="#000000" class="active-path" data-old_color="#000000" fill="#133C6D"></path> </g> </g><g> <g> <path d="M504.001,432.001h-496c-4.424,0-8,3.576-8,8s3.576,8,8,8h496c4.424,0,8-3.576,8-8S508.425,432.001,504.001,432.001z" data-original="#000000" class="active-path" data-old_color="#000000" fill="#133C6D"></path> </g> </g><g> <g> <path d="M447.393,160.001h-97.392c-4.424,0-8,3.576-8,8s3.576,8,8,8h97.392c4.424,0,8-3.576,8-8S451.817,160.001,447.393,160.001z " data-original="#000000" class="active-path" data-old_color="#000000" fill="#133C6D"></path> </g> </g><g> <g> <path d="M427.697,128.001H308.001c-4.424,0-8,3.576-8,8s3.576,8,8,8h119.696c4.424,0,8-3.576,8-8S432.121,128.001,427.697,128.001 z" data-original="#000000" class="active-path" data-old_color="#000000" fill="#133C6D"></path> </g> </g><g> <g> <path d="M120.001,320.001h-64c-4.424,0-8,3.576-8,8s3.576,8,8,8h64c4.424,0,8-3.576,8-8S124.425,320.001,120.001,320.001z" data-original="#000000" class="active-path" data-old_color="#000000" fill="#133C6D"></path> </g> </g><g> <g> <path d="M440.001,320.001h-64c-4.424,0-8,3.576-8,8s3.576,8,8,8h64c4.424,0,8-3.576,8-8S444.425,320.001,440.001,320.001z" data-original="#000000" class="active-path" data-old_color="#000000" fill="#133C6D"></path> </g> </g><g> <g> <path d="M296.001,320.001h-64c-4.424,0-8,3.576-8,8s3.576,8,8,8h64c4.424,0,8-3.576,8-8S300.425,320.001,296.001,320.001z" data-original="#000000" class="active-path" data-old_color="#000000" fill="#133C6D"></path> </g> </g></g> </svg> 