<?xml version="1.0" encoding="UTF-8"?> <!-- Generator: Adobe Illustrator 24.0.2, SVG Export Plug-In . SVG Version: 6.00 Build 0) --> <svg xmlns="http://www.w3.org/2000/svg" xmlns:xlink="http://www.w3.org/1999/xlink" version="1.1" id="Capa_1" x="0px" y="0px" viewBox="0 0 512 512" xml:space="preserve"> <circle fill="#ECF5DF" cx="135.5" cy="135.5" r="135.5"></circle> <g> <g> <path fill="#0261A3" d="M380.25,481.89c-4.14,0-7.5,3.36-7.5,7.5V497h-233.5v-7.61c0-4.14-3.36-7.5-7.5-7.5s-7.5,3.36-7.5,7.5 v15.11c0,4.14,3.36,7.5,7.5,7.5h248.5c4.14,0,7.5-3.36,7.5-7.5v-15.11C387.75,485.25,384.39,481.89,380.25,481.89z"></path> <path fill="#0261A3" d="M173.75,247.7c-9.38,3.14-16.17,12.01-16.17,22.44c0,13.05,10.62,23.66,23.66,23.66h8.7 c0.51,23.51,13.34,44.03,32.29,55.35v21.31l-25.4,6.81c-0.01,0-0.02,0-0.03,0.01c-0.01,0-0.01,0.01-0.02,0.01l-14.57,3.91 c-16.34,4.38-30.53,13.7-41.04,26.96c-10.49,13.23-16.32,29.14-16.87,45.99c-0.14,4.14,3.11,7.61,7.25,7.74c0.08,0,0.17,0,0.25,0 c4.03,0,7.36-3.2,7.49-7.25c0.92-28.01,19.73-51.71,46.81-58.96l7.47-2l4.43,15.99c2.52,9.11,9.41,16.23,18.43,19.05 c2.73,0.85,5.53,1.27,8.3,1.27c6.38,0,12.64-2.21,17.7-6.43L256,412.24l13.58,11.31c5.06,4.22,11.32,6.43,17.7,6.43 c2.77,0,5.57-0.42,8.3-1.27c9.02-2.82,15.91-9.94,18.43-19.05l4.43-15.99l7.47,2c27.08,7.26,45.89,30.95,46.81,58.96 c0.13,4.06,3.46,7.25,7.49,7.25c0.08,0,0.17,0,0.25,0c4.14-0.14,7.39-3.6,7.25-7.74c-0.55-16.86-6.39-32.76-16.87-45.99 c-10.51-13.26-24.7-22.58-41.04-26.96l-14.57-3.91c-0.01,0-0.02-0.01-0.02-0.01c-0.01,0-0.02,0-0.03-0.01l-25.4-6.81v-21.31 c18.95-11.31,31.78-31.83,32.29-55.35h8.7c13.05,0,23.66-10.61,23.66-23.66c0-11.16-7.77-20.54-18.18-23.02v-20.42 c0-44.8-36.44-81.25-81.24-81.25c-13.11,0-26.14,3.2-37.67,9.25c-3.67,1.93-5.08,6.46-3.15,10.13c1.92,3.67,6.46,5.08,10.13,3.15 c9.39-4.93,20-7.53,30.69-7.53c36.52,0,66.24,29.72,66.24,66.25v19.77l-24.82,0c-7.01,0-12.71-5.7-12.71-12.7 c0-4.14-3.36-7.5-7.5-7.5s-7.5,3.36-7.5,7.5c0,7-5.7,12.7-12.7,12.7l-67.25,0v-19.77c0-13.75,4.16-26.92,12.04-38.1 c2.39-3.39,1.57-8.06-1.81-10.45c-3.39-2.38-8.06-1.57-10.45,1.81c-9.67,13.72-14.78,29.88-14.78,46.74L173.75,247.7L173.75,247.7 z M172.59,270.14c0-4.77,3.88-8.66,8.65-8.66h0.01h8.66v17.32h-8.66C176.47,278.81,172.59,274.92,172.59,270.14L172.59,270.14z M220.9,414.39c-4.2-1.31-7.28-4.5-8.45-8.73l-4.4-15.87l15.53-4.16c2.55,8.78,8.58,16.1,16.5,20.35l-7.26,6.05 C229.44,414.84,225.1,415.71,220.9,414.39L220.9,414.39z M299.55,405.66c-1.17,4.24-4.25,7.42-8.45,8.73 c-4.2,1.31-8.54,0.45-11.92-2.37l-7.26-6.05c7.92-4.25,13.95-11.57,16.5-20.35l15.53,4.16L299.55,405.66z M274.77,376.21 c0,10.35-8.42,18.76-18.77,18.76s-18.76-8.42-18.76-18.77v-20.48c5.95,1.77,12.25,2.73,18.76,2.73s12.81-0.96,18.77-2.73V376.21z M339.42,270.14c0,4.78-3.89,8.66-8.66,8.66h-8.66v-17.33h6.64c0.01,0,0.01,0,0.02,0h2C335.53,261.48,339.42,265.37,339.42,270.14 L339.42,270.14z M276.2,252.71c5.06,5.39,12.25,8.77,20.21,8.77h10.68v30.89c0,28.17-22.92,51.09-51.09,51.09 s-51.09-22.92-51.09-51.09v-30.89H256C263.96,261.48,271.15,258.11,276.2,252.71z"></path> <path fill="#0261A3" d="M209.11,78.35c1.54,1.5,2.24,3.67,1.88,5.79l-2.53,14.76c-1.4,8.14,1.89,16.21,8.57,21.07 c6.68,4.85,15.37,5.48,22.68,1.64l13.25-6.97c1.91-1,4.18-1,6.09,0l13.25,6.97c3.18,1.67,6.62,2.5,10.04,2.5 c4.45,0,8.86-1.39,12.64-4.14c6.68-4.85,9.96-12.93,8.57-21.07l-2.53-14.75c-0.36-2.12,0.34-4.29,1.88-5.79l10.72-10.45 c5.91-5.76,8-14.22,5.45-22.08c-2.55-7.85-9.21-13.47-17.39-14.66l-14.82-2.15c-2.13-0.31-3.97-1.65-4.92-3.58l-6.63-13.43 C271.66,4.6,264.26,0,256,0s-15.66,4.6-19.31,12.01l-6.63,13.43c-0.95,1.93-2.79,3.27-4.92,3.58l-14.81,2.15 c-8.17,1.19-14.84,6.8-17.39,14.66s-0.46,16.31,5.45,22.08L209.11,78.35z M207.2,50.45c0.38-1.16,1.65-3.92,5.28-4.45l14.81-2.15 c7.02-1.02,13.08-5.42,16.22-11.78l6.63-13.42c1.62-3.29,4.64-3.65,5.86-3.65s4.24,0.35,5.86,3.65l6.63,13.42 c3.14,6.36,9.2,10.76,16.22,11.78L299.52,46c3.63,0.53,4.9,3.29,5.28,4.45c0.38,1.16,0.97,4.14-1.65,6.7L292.42,67.6 c-5.08,4.95-7.39,12.07-6.2,19.06l2.53,14.75c0.62,3.62-1.61,5.68-2.6,6.39s-3.64,2.2-6.89,0.5l-13.25-6.97 c-3.14-1.65-6.58-2.47-10.02-2.47c-3.44,0-6.88,0.82-10.02,2.47l-13.25,6.97c-3.25,1.71-5.9,0.22-6.88-0.5 c-0.99-0.72-3.22-2.78-2.6-6.39l2.53-14.76c1.2-6.99-1.12-14.11-6.2-19.06l-10.72-10.45C206.23,54.6,206.82,51.62,207.2,50.45 L207.2,50.45z"></path> <path fill="#0261A3" d="M456.99,102.24c5.91-5.76,8-14.22,5.45-22.08c-2.55-7.85-9.21-13.47-17.39-14.66l-14.81-2.15 c-2.13-0.31-3.97-1.65-4.92-3.58l-6.63-13.42c-3.65-7.4-11.06-12.01-19.31-12.01c-8.26,0-15.66,4.6-19.31,12.01l-6.63,13.42 c-0.95,1.93-2.79,3.27-4.92,3.58l-14.82,2.15c-8.17,1.19-14.83,6.81-17.39,14.66c-2.55,7.85-0.46,16.31,5.45,22.08l10.72,10.45 c1.54,1.5,2.24,3.67,1.88,5.79l-2.53,14.75c-1.4,8.14,1.89,16.21,8.57,21.07c6.68,4.85,15.37,5.48,22.68,1.64l13.25-6.97 c1.9-1,4.18-1,6.08,0l13.25,6.97c3.18,1.67,6.62,2.5,10.04,2.5c4.45,0,8.86-1.39,12.64-4.14c6.68-4.85,9.96-12.93,8.57-21.07 l-2.53-14.75c-0.36-2.12,0.34-4.28,1.88-5.78L456.99,102.24z M435.8,101.95c-5.08,4.95-7.39,12.07-6.19,19.06l2.53,14.75 c0.62,3.62-1.61,5.68-2.6,6.4s-3.64,2.2-6.89,0.5l-13.25-6.97c-3.14-1.65-6.58-2.48-10.02-2.48s-6.88,0.82-10.02,2.48l-13.25,6.97 c-3.25,1.71-5.9,0.22-6.89-0.5s-3.22-2.78-2.6-6.4l2.53-14.75c1.2-6.99-1.12-14.11-6.19-19.06L352.24,91.5 c-2.63-2.56-2.03-5.54-1.65-6.7c0.38-1.16,1.65-3.92,5.28-4.45l14.82-2.15c7.02-1.02,13.08-5.42,16.22-11.78l6.63-13.42 c1.62-3.29,4.64-3.65,5.86-3.65s4.24,0.35,5.86,3.65l6.63,13.42c3.14,6.36,9.2,10.76,16.22,11.78l14.81,2.15 c3.63,0.53,4.9,3.29,5.28,4.45s0.97,4.14-1.65,6.7L435.8,101.95z"></path> <path fill="#0261A3" d="M151.6,154.3c6.68-4.85,9.96-12.93,8.57-21.07l-2.53-14.76c-0.36-2.12,0.34-4.28,1.88-5.79l10.72-10.45 c5.91-5.76,8-14.22,5.45-22.08s-9.21-13.47-17.39-14.66l-14.82-2.15c-2.13-0.31-3.97-1.65-4.92-3.58l-6.63-13.42 c-3.65-7.41-11.05-12.01-19.31-12.01c0,0,0,0,0,0c-8.26,0-15.66,4.6-19.31,12.01l-6.63,13.42c-0.95,1.93-2.79,3.27-4.92,3.58 l-14.82,2.15c-8.17,1.19-14.83,6.81-17.39,14.66s-0.46,16.31,5.45,22.08l10.72,10.45c1.54,1.5,2.24,3.67,1.88,5.79l-2.53,14.76 c-1.4,8.14,1.89,16.21,8.57,21.07c3.78,2.74,8.19,4.14,12.64,4.14c3.42,0,6.86-0.83,10.04-2.5l13.25-6.97c1.91-1,4.18-1,6.08,0 l13.25,6.97C136.22,159.78,144.91,159.15,151.6,154.3L151.6,154.3z M112.62,133.22c-3.44,0-6.89,0.82-10.02,2.48l-13.25,6.97 c-3.24,1.71-5.9,0.22-6.89-0.5c-0.99-0.72-3.22-2.78-2.6-6.39l2.53-14.75c1.2-6.99-1.12-14.11-6.19-19.06L65.48,91.5 c-2.63-2.56-2.03-5.54-1.65-6.7c0.38-1.16,1.65-3.92,5.28-4.45l14.81-2.15c7.02-1.02,13.08-5.42,16.22-11.78l6.63-13.42 c1.62-3.29,4.64-3.65,5.86-3.65h0c1.22,0,4.24,0.35,5.86,3.64v0l6.63,13.42c3.14,6.36,9.2,10.76,16.22,11.78l14.81,2.15 c3.63,0.53,4.9,3.29,5.28,4.45c0.38,1.16,0.97,4.14-1.65,6.7l-10.72,10.45c-5.08,4.95-7.39,12.07-6.19,19.06l2.53,14.76 c0.62,3.62-1.61,5.68-2.6,6.4s-3.64,2.2-6.88,0.5l-13.25-6.97C119.5,134.05,116.06,133.22,112.62,133.22z"></path> </g> </g> </svg> 