<?xml version="1.0" encoding="UTF-8"?> <!-- Generator: Adobe Illustrator 24.0.2, SVG Export Plug-In . SVG Version: 6.00 Build 0) --> <svg xmlns="http://www.w3.org/2000/svg" xmlns:xlink="http://www.w3.org/1999/xlink" version="1.1" id="Capa_1" x="0px" y="0px" viewBox="0 0 512 512" style="enable-background:new 0 0 512 512;" xml:space="preserve"> <style type="text/css"> .st0{fill:#ECF5DF;} .st1{fill:#133C6D;} </style> <circle class="st0" cx="138.5" cy="137.1" r="135.5"></circle> <g> <g> <g> <g> <rect x="367.7" y="341.5" class="st1" width="51.3" height="17.1"></rect> <rect x="299.3" y="341.5" class="st1" width="51.3" height="17.1"></rect> <rect x="230.9" y="341.5" class="st1" width="51.3" height="17.1"></rect> <path class="st1" d="M504.4,177.4L335.2,8.1c-4.8-4.9-11.4-7.6-18.2-7.6H317c-6.8,0-13.3,2.7-18,7.6L119.4,187.6H25.7 C11.5,187.6,0,199.1,0,213.2v239.4c0,14.2,11.5,25.7,25.7,25.7h126.7l25.5,25.5c4.8,4.9,11.4,7.6,18.2,7.6h0.1 c6.8,0,13.3-2.7,18-7.6l25.6-25.5h196.4c14.2,0,25.7-11.5,25.7-25.7V256.3l42.6-42.6c4.9-4.8,7.6-11.3,7.6-18.1 C512,188.8,509.3,182.2,504.4,177.4z M395.6,92.8l-94.8,94.8h-72.6L359.3,56.4L395.6,92.8z M311,20.2c3.3-3.3,8.6-3.4,11.9-0.1 c0,0,0.1,0.1,0.1,0.1l24.1,24.2L204,187.6h-60.4L311,20.2z M202.1,491.8c-1.6,1.6-3.7,2.6-6,2.6c-2.3,0-4.5-0.9-6.1-2.6 l-13.4-13.5h39L202.1,491.8z M444.7,452.7c0,4.7-3.8,8.6-8.6,8.6H25.7c-4.7,0-8.6-3.8-8.6-8.6V333h427.6V452.7z M444.7,315.9 H17.1v-51.3h427.6V315.9z M444.7,247.4H17.1v-34.2c0-4.7,3.8-8.6,8.6-8.6h410.5c4.7,0,8.6,3.8,8.6,8.6V247.4z M492.3,201.6 L492.3,201.6l-30.6,30.6v-18.9c0-14.2-11.5-25.7-25.7-25.7H325l82.7-82.7l84.6,84.6c1.6,1.6,2.6,3.8,2.6,6.1 C494.9,197.8,493.9,200,492.3,201.6z"></path> <path class="st1" d="M82,444.4c1.2-1.1,2.4-2.2,3.5-3.5c11.3,13.2,30.7,15.7,45,5.8c9.2-6.4,14.7-16.9,14.8-28.2 c0-18.9-15.3-34.2-34.2-34.2c-1.7,0-3.4,0.1-5.1,0.4l-0.2,0.1c-0.1,0-0.2,0-0.2,0c-7.8,1.3-15,5.3-20.1,11.4 c-12.4-14.3-34-15.9-48.2-3.5c-14.3,12.4-15.9,34-3.5,48.2C46.1,455.2,67.7,456.7,82,444.4z M109,401.6c0.7-0.1,1.4-0.2,2.2-0.2 c9.4,0,17.1,7.7,17.1,17.1c0,3.6-1.2,7.1-3.4,10c-0.3,0.4-0.5,0.9-0.9,1.3c-0.1,0.1-0.1,0.1-0.2,0.2c-3.2,3.6-7.8,5.6-12.6,5.6 c-9.4-0.2-17-7.9-16.8-17.4C94.5,409.8,100.7,402.8,109,401.6z M59.9,401.4c9.4,0,17.1,7.7,17.1,17.1s-7.7,17.1-17.1,17.1 s-17.1-7.7-17.1-17.1S50.4,401.4,59.9,401.4z"></path> </g> </g> </g> </g> </svg> 