<?xml version="1.0" encoding="UTF-8"?> <svg xmlns="http://www.w3.org/2000/svg" id="Layer_3" height="512px" viewBox="0 0 64 64" width="512px"><g><path d="m57 26c-2.967 0-5.431 2.167-5.91 5h-5.141c-.221-3.108-1.455-5.934-3.381-8.154l3.961-3.961c.981.699 2.177 1.115 3.471 1.115 3.309 0 6-2.691 6-6s-2.691-6-6-6-6 2.691-6 6c0 1.294.416 2.49 1.115 3.471l-3.961 3.961c-2.22-1.926-5.047-3.16-8.154-3.381v-5.141c2.833-.478 5-2.942 5-5.91 0-3.309-2.691-6-6-6s-6 2.691-6 6c0 2.967 2.167 5.431 5 5.91v5.141c-3.108.221-5.934 1.455-8.154 3.381l-3.961-3.961c.699-.981 1.115-2.177 1.115-3.471 0-3.309-2.691-6-6-6s-6 2.691-6 6 2.691 6 6 6c1.294 0 2.49-.416 3.471-1.115l3.961 3.961c-1.926 2.22-3.16 5.047-3.381 8.154h-5.141c-.478-2.833-2.942-5-5.91-5-3.309 0-6 2.691-6 6s2.691 6 6 6c2.967 0 5.431-2.167 5.91-5h5.141c.221 3.108 1.455 5.934 3.381 8.154l-3.961 3.961c-.981-.699-2.177-1.115-3.471-1.115-3.309 0-6 2.691-6 6s2.691 6 6 6 6-2.691 6-6c0-1.294-.416-2.49-1.115-3.471l3.961-3.961c2.22 1.926 5.047 3.16 8.154 3.381v5.141c-2.833.478-5 2.942-5 5.91 0 3.309 2.691 6 6 6s6-2.691 6-6c0-2.967-2.167-5.431-5-5.91v-5.141c3.108-.221 5.934-1.455 8.154-3.381l3.961 3.961c-.699.981-1.115 2.177-1.115 3.471 0 3.309 2.691 6 6 6s6-2.691 6-6-2.691-6-6-6c-1.294 0-2.49.416-3.471 1.115l-3.961-3.961c1.926-2.22 3.16-5.047 3.381-8.154h5.141c.478 2.833 2.942 5 5.91 5 3.309 0 6-2.691 6-6s-2.691-6-6-6zm-50 10c-2.206 0-4-1.794-4-4s1.794-4 4-4 4 1.794 4 4-1.794 4-4 4zm43-26c2.206 0 4 1.794 4 4s-1.794 4-4 4-4-1.794-4-4 1.794-4 4-4zm-22-3c0-2.206 1.794-4 4-4s4 1.794 4 4-1.794 4-4 4-4-1.794-4-4zm-18 7c0-2.206 1.794-4 4-4s4 1.794 4 4-1.794 4-4 4-4-1.794-4-4zm4 40c-2.206 0-4-1.794-4-4s1.794-4 4-4 4 1.794 4 4-1.794 4-4 4zm22 3c0 2.206-1.794 4-4 4s-4-1.794-4-4 1.794-4 4-4 4 1.794 4 4zm18-7c0 2.206-1.794 4-4 4s-4-1.794-4-4 1.794-4 4-4 4 1.794 4 4zm-22-6c-6.617 0-12-5.383-12-12 0-3.542 1.552-6.72 4-8.919v1.919h2.105l.865 7.782c-1.174.428-1.97 1.53-1.97 2.809v1.409c0 .28.116.531.302.713-.188.391-.302.825-.302 1.287 0 1.654 1.346 3 3 3s3-1.346 3-3c0-.352-.072-.686-.184-1h2.369c-.113.314-.185.648-.185 1 0 1.654 1.346 3 3 3s3-1.346 3-3c0-.352-.072-.686-.184-1h1.184v-2h-13v-.409c0-.468.319-.869.775-.974l11.45-2.642c.454-.105.775-.509.775-.975v-5c0-.552-.448-1-1-1h-10.883l-.123-1.11c-.056-.507-.484-.89-.994-.89h-2.911c2.115-1.861 4.879-3 7.911-3 6.617 0 12 5.383 12 12s-5.383 12-12 12zm6-17v3.205l-2 .461v-3.666zm-4 4.127-2 .461v-4.588h2zm-4 .923-1.072.247-.589-5.297h1.661zm-1 6.95c0 .551-.449 1-1 1s-1-.449-1-1 .449-1 1-1 1 .449 1 1zm8 0c0 .551-.449 1-1 1s-1-.449-1-1 .449-1 1-1 1 .449 1 1zm20-3c-2.206 0-4-1.794-4-4s1.794-4 4-4 4 1.794 4 4-1.794 4-4 4z" data-original="#000000" class="active-path" data-old_color="#000000" fill="#133C6D"></path></g></svg> 