<?xml version="1.0" encoding="UTF-8"?> <!-- Generator: Adobe Illustrator 24.0.2, SVG Export Plug-In . SVG Version: 6.00 Build 0) --> <svg xmlns="http://www.w3.org/2000/svg" xmlns:xlink="http://www.w3.org/1999/xlink" version="1.1" id="Layer_5" x="0px" y="0px" viewBox="0 0 512 512" xml:space="preserve"> <circle fill="#ECF5DF" cx="135.5" cy="135.5" r="135.5"></circle> <path fill="#0261A3" d="M72,393.47V288H56v105.47c-9.29,3.31-16,12.11-16,22.53c0,13.23,10.77,24,24,24s24-10.77,24-24 C88,405.58,81.29,396.78,72,393.47z M64,424c-4.42,0-8-3.58-8-8s3.58-8,8-8s8,3.58,8,8S68.42,424,64,424z"></path> <path fill="#0261A3" d="M112,288c-13.23,0-24,10.77-24,24c0,10.42,6.71,19.22,16,22.53V440h16V334.53c9.29-3.31,16-12.11,16-22.53 C136,298.77,125.23,288,112,288z M112,320c-4.42,0-8-3.58-8-8s3.58-8,8-8s8,3.58,8,8S116.42,320,112,320z"></path> <path fill="#0261A3" d="M424,393.47V288h-16v105.47c-9.29,3.31-16,12.11-16,22.53c0,13.23,10.77,24,24,24s24-10.77,24-24 C440,405.58,433.29,396.78,424,393.47z M416,424c-4.42,0-8-3.58-8-8s3.58-8,8-8s8,3.58,8,8S420.42,424,416,424z"></path> <path fill="#0261A3" d="M464,288c-13.23,0-24,10.77-24,24c0,10.42,6.71,19.22,16,22.53V440h16V334.53c9.29-3.31,16-12.11,16-22.53 C488,298.77,477.23,288,464,288z M464,320c-4.42,0-8-3.58-8-8s3.58-8,8-8s8,3.58,8,8S468.42,320,464,320z"></path> <path fill="#0261A3" d="M352,264c-3.16,0-6.16,0.65-8.93,1.76C340.31,255.56,331.06,248,320,248c-6.17,0-11.74,2.41-16,6.24 c-4.26-3.84-9.83-6.24-16-6.24c-2.82,0-5.49,0.58-8,1.47v-68.84c33.26-9.42,57.88-37.79,62.96-71.67l33.82,18.61 C356.95,142.14,344,165.56,344,192c0,44.11,35.89,80,80,80s80-35.89,80-80s-35.89-80-80-80c-10.97,0-21.43,2.22-30.96,6.24 l-49.29-27.11C341.21,44.88,302.88,8,256,8s-85.21,36.88-87.75,83.14l-49.29,27.1C109.43,114.22,98.98,112,88,112 c-44.11,0-80,35.89-80,80s35.89,80,80,80s80-35.89,80-80c0-26.45-12.95-49.86-32.79-64.44l33.83-18.61 c5.08,33.91,29.68,62.26,62.97,71.69V328.1c0,3.64-0.84,7.29-2.45,10.55l-6.71-33.55c-4.81-24.02-26.07-41.45-50.56-41.45 c-11.18,0-20.28,9.1-20.28,20.28c0,4.02,1.18,7.9,3.41,11.25l8.23,12.35c3.05,4.57,5.02,9.86,5.7,15.31l5.54,44.26 c0.91,7.38,3.25,14.4,6.7,20.38L208,441.84V456h-16v48h176v-48h-16v-13.34l12.8-17.06c7.22-9.62,11.2-21.55,11.2-33.6V288 C376,274.77,365.23,264,352,264L352,264z M424,256c-14.39,0-27.64-4.83-38.34-12.87c9-11.94,23.16-19.13,38.34-19.13 s29.34,7.19,38.34,19.13C451.64,251.17,438.39,256,424,256z M400,184c0-13.23,10.77-24,24-24s24,10.77,24,24s-10.77,24-24,24 S400,197.23,400,184z M424,128c35.29,0,64,28.71,64,64c0,15.14-5.31,29.06-14.14,40.03c-6.34-7.89-14.37-14.1-23.45-18.22 C458.68,206.47,464,195.9,464,184c0-22.06-17.94-40-40-40s-40,17.94-40,40c0,11.9,5.32,22.47,13.59,29.81 c-9.08,4.13-17.11,10.34-23.45,18.22C365.31,221.06,360,207.14,360,192C360,156.71,388.71,128,424,128z M88,256 c-14.39,0-27.64-4.83-38.34-12.87C58.66,231.19,72.82,224,88,224s29.34,7.19,38.34,19.13C115.64,251.17,102.39,256,88,256z M64,184 c0-13.23,10.77-24,24-24s24,10.77,24,24s-10.77,24-24,24S64,197.23,64,184z M152,192c0,15.14-5.31,29.06-14.14,40.03 c-6.34-7.89-14.37-14.1-23.45-18.22C122.68,206.47,128,195.9,128,184c0-22.06-17.94-40-40-40s-40,17.94-40,40 c0,11.9,5.32,22.47,13.59,29.81c-9.08,4.13-17.11,10.34-23.45,18.22C29.31,221.06,24,207.14,24,192c0-35.29,28.71-64,64-64 S152,156.71,152,192z M184,96c0-39.7,32.3-72,72-72s72,32.3,72,72c0,16.14-5.48,31.26-14.74,43.46 c-6.58-13.27-17.49-23.72-30.75-29.74C290.72,102.39,296,91.85,296,80c0-22.06-17.94-40-40-40s-40,17.94-40,40 c0,11.85,5.28,22.39,13.49,29.72c-13.27,6.02-24.18,16.47-30.76,29.74C189.47,127.27,184,112.15,184,96L184,96z M280,80 c0,13.23-10.77,24-24,24s-24-10.77-24-24s10.77-24,24-24S280,66.77,280,80z M210.9,152.02C217.6,132.99,235.42,120,256,120 c20.56,0,38.38,12.99,45.1,32.01c-7.01,5.67-15.09,10.1-23.98,12.82C273.08,157.24,265.18,152,256,152s-17.08,5.24-21.11,12.83 C225.98,162.1,217.9,157.69,210.9,152.02z M352,488H208v-16h144V488z M360,392c0,8.6-2.84,17.13-8,24l-16,21.34V456H224v-17.84 l-28.29-58.14c-2.64-4.6-4.3-9.6-4.96-14.87l-5.54-44.27c-0.98-7.9-3.83-15.58-8.26-22.2l-8.24-12.36c-0.47-0.7-0.72-1.53-0.72-2.38 c0-2.36,1.92-4.27,4.28-4.27c16.89,0,31.55,12.02,34.87,28.58l10.29,51.42h19.5l6.83-13.67c2.76-5.52,4.22-11.71,4.22-17.88V176 c0-4.42,3.58-8,8-8c4.42,0,8,3.58,8,8v96v32h16v-32c0-4.42,3.58-8,8-8s8,3.58,8,8v32h16v-32c0-4.42,3.58-8,8-8s8,3.58,8,8v16v16h16 v-16c0-4.42,3.58-8,8-8s8,3.58,8,8V392z"></path> </svg> 