<?xml version="1.0" encoding="UTF-8"?> <!-- Generator: Adobe Illustrator 24.0.2, SVG Export Plug-In . SVG Version: 6.00 Build 0) --> <svg xmlns="http://www.w3.org/2000/svg" xmlns:xlink="http://www.w3.org/1999/xlink" version="1.1" id="Layer_1" x="0px" y="0px" viewBox="0 0 512 512" xml:space="preserve"> <circle fill="#ECF5DF" cx="135.5" cy="135.5" r="135.5"></circle> <g id="Analysis-report-document-develop-infromation"> <path fill="#0261A3" d="M493.68,106.32l-88-88c-1.53-1.47-3.56-2.3-5.68-2.32H200c-13.24,0.04-23.96,10.76-24,24v48.4 C83.44,92.74,11.92,171.29,16.26,263.86C20.31,350.35,89.51,419.55,176,423.6V472c0.04,13.24,10.76,23.96,24,24h272 c13.24-0.04,23.96-10.76,24-24V112C495.98,109.88,495.15,107.85,493.68,106.32z M408,43.28L468.72,104H416c-4.42,0-8-3.58-8-8 V43.28z M32,256c0.11-80.79,63.33-147.42,144-151.76v148.48L71.2,357.52C45.97,329.73,32,293.54,32,256L32,256z M82.48,368.8 L187.28,264h148.48c-4.25,83.68-75.53,148.06-159.21,143.81C141.64,406.03,108.41,392.25,82.48,368.8L82.48,368.8z M480,472 c0,4.42-3.58,8-8,8H200c-4.42,0-8-3.58-8-8v-48.4c89.47-4.32,159.83-78.03,160-167.6c0-4.42-3.58-8-8-8H192V40c0-4.42,3.58-8,8-8 h192v64c0.04,13.24,10.76,23.96,24,24h64V472z"></path> <path fill="#0261A3" d="M216,56c-4.42,0-8,3.58-8,8v160c0,4.42,3.58,8,8,8h160c4.42,0,8-3.58,8-8C383.9,131.26,308.74,56.1,216,56z M224,216V72.24C301.6,76.41,363.59,138.4,367.76,216H224z"></path> <path fill="#0261A3" d="M392,320c-39.76,0-72,32.24-72,72s32.24,72,72,72s72-32.24,72-72C463.94,352.26,431.74,320.06,392,320z M392,448c-30.93,0-56-25.07-56-56s25.07-56,56-56s56,25.07,56,56C447.96,422.91,422.91,447.96,392,448z"></path> <path fill="#0261A3" d="M376,404.69l-18.34-18.34l-11.31,11.31l24,24c3.12,3.12,8.19,3.12,11.31,0l48-48l-11.31-11.31L376,404.69z"></path> <path fill="#0261A3" d="M400,152h64v16h-64V152z"></path> <path fill="#0261A3" d="M400,200h64v16h-64V200z"></path> <path fill="#0261A3" d="M400,248h64v16h-64V248z"></path> </g> </svg> 