<?xml version="1.0" encoding="UTF-8"?> <svg xmlns="http://www.w3.org/2000/svg" height="512px" viewBox="0 0 512 512" width="512px"><g><g id="Outline"><path d="m264 312h16v40h-16z" data-original="#000000" class="active-path" data-old_color="#000000" fill="#133C6D"></path><path d="m232 312h16v40h-16z" data-original="#000000" class="active-path" data-old_color="#000000" fill="#133C6D"></path><path d="m200 312h16v40h-16z" data-original="#000000" class="active-path" data-old_color="#000000" fill="#133C6D"></path><path d="m168 312h16v40h-16z" data-original="#000000" class="active-path" data-old_color="#000000" fill="#133C6D"></path><path d="m104 312h16v40h-16z" data-original="#000000" class="active-path" data-old_color="#000000" fill="#133C6D"></path><path d="m72 312h16v40h-16z" data-original="#000000" class="active-path" data-old_color="#000000" fill="#133C6D"></path><path d="m430 464c-12.44 0-18.324-3.246-25.138-7-7.642-4.216-16.3-9-32.866-9s-25.222 4.779-32.864 9c-6.813 3.759-12.7 7-25.137 7s-18.322-3.246-25.135-7c-7.641-4.216-16.3-9-32.864-9s-25.221 4.779-32.862 9c-6.813 3.759-12.695 7-25.135 7s-18.322-3.246-25.134-7c-7.642-4.216-16.3-9-32.864-9s-25.223 4.779-32.864 9c-6.813 3.759-12.7 7-25.136 7s-18.321-3.246-25.133-7c-7.642-4.216-16.3-9-32.864-9v16c12.439 0 18.322 3.246 25.135 7 7.641 4.216 16.3 9 32.862 9s25.223-4.779 32.864-9c6.813-3.759 12.7-7 25.136-7s18.322 3.246 25.135 7c7.641 4.216 16.3 9 32.863 9s25.222-4.779 32.864-9c6.812-3.759 12.695-7 25.133-7s18.323 3.246 25.136 7c7.642 4.216 16.3 9 32.863 9s25.224-4.779 32.865-9c6.813-3.759 12.7-7 25.136-7s18.324 3.246 25.138 7c7.642 4.216 16.305 9 32.866 9s25.224-4.779 32.866-9c6.814-3.759 12.7-7 25.138-7v-16c-16.562 0-25.224 4.779-32.866 9-6.818 3.754-12.701 7-25.138 7z" data-original="#000000" class="active-path" data-old_color="#000000" fill="#133C6D"></path><path d="m344 432h16v-56a8 8 0 0 0 -8-8h-40v-80a8 8 0 0 0 -8-8h-32v-80a8 8 0 0 0 -8-8h-192a8 8 0 0 0 -8 8v80h-16a8 8 0 0 0 -8 8v80h-16v16h320zm-48-64h-144v-72h144zm-40-88h-80v-72h80zm-176-72h80v72h-80zm-24 88h80v72h-80z" data-original="#000000" class="active-path" data-old_color="#000000" fill="#133C6D"></path><path d="m96 224h16v40h-16z" data-original="#000000" class="active-path" data-old_color="#000000" fill="#133C6D"></path><path d="m128 224h16v40h-16z" data-original="#000000" class="active-path" data-old_color="#000000" fill="#133C6D"></path><path d="m192 224h16v40h-16z" data-original="#000000" class="active-path" data-old_color="#000000" fill="#133C6D"></path><path d="m224 224h16v40h-16z" data-original="#000000" class="active-path" data-old_color="#000000" fill="#133C6D"></path><path d="m448 328h16v16h-16z" data-original="#000000" class="active-path" data-old_color="#000000" fill="#133C6D"></path><path d="m136 72h32v16h-32z" data-original="#000000" class="active-path" data-old_color="#000000" fill="#133C6D"></path><path d="m72 136h24a8 8 0 0 0 5.657-2.343l13.657-13.657h4.686v56h16v-56h32v56h16v-56h8a8 8 0 0 0 8-8v-8h216v72h-16v16h16v16a8 8 0 0 0 8 8 8 8 0 1 1 -8 8h-16a24 24 0 1 0 32-22.629v-9.371h16v-16h-16v-72h16a8 8 0 0 0 6.4-12.8l-24-32a8 8 0 0 0 -6.4-3.2h-224v-8a8 8 0 0 0 -8-8h-24v-16h-16v16h-16v-24h-16v24h-4.686l-13.657-13.657a8 8 0 0 0 -5.657-2.343h-24a8 8 0 0 0 -8 8v96a8 8 0 0 0 8 8zm348-64 12 16h-232v-16zm-300-16h64v48h-64zm-40-16h12.687l11.313 11.314v57.372l-11.313 11.314h-12.687z" data-original="#000000" class="active-path" data-old_color="#000000" fill="#133C6D"></path><path d="m488 296h-16v-24h-16v24h-16v-16h-16v16h-40a8 8 0 0 0 -8 8v24h-48v16h56a8 8 0 0 0 8-8v-24h88v36.01a92.224 92.224 0 0 1 -29.834 67.818l-28.666 26.272 10.815 11.8 28.664-26.274a108.267 108.267 0 0 0 35.021-79.616v-44.01a8 8 0 0 0 -8-8z" data-original="#000000" class="active-path" data-old_color="#000000" fill="#133C6D"></path></g></g></svg> 