<?xml version="1.0" encoding="UTF-8"?> <svg xmlns="http://www.w3.org/2000/svg" id="Layer_5" height="512px" viewBox="0 0 64 64" width="512px" class=""><g><g><path d="m61 26.816c1.161-.414 2-1.514 2-2.816v-12c0-1.654-1.346-3-3-3h-12c-1.654 0-3 1.346-3 3v2.057l-2.819-1.057h-7.965c-2.182-7.1-8.733-12-16.216-12-9.374 0-17 7.626-17 17 0 7.994 5.553 14.699 13 16.505v3.495c0 .537.153 1.034.401 1.471-.839.532-1.401 1.464-1.401 2.529v16c0 2.757 2.243 5 5 5 2.414 0 4.434-1.721 4.899-4h33.101c3.86 0 7-3.141 7-7 0-1.654-1.346-3-3-3h-.026c.635-.838 1.026-1.87 1.026-3zm-14-14.816c0-.552.449-1 1-1h12c.551 0 1 .448 1 1v12c0 .552-.449 1-1 1h-5-7c-.551 0-1-.448-1-1v-2.807l1.294-.485 2.706 2.706 8.707-8.707-1.414-1.414-7.293 7.293-.795-.795c.492-.455.795-1.099.795-1.791 0-1.012-.637-1.931-1.585-2.288l-2.415-.905zm4 33h-2v-14h2zm-4-16v16h-2v-14h-6v14h-2v-10h-6v10h-4v-12.594c2.171-1.36 4.021-3.203 5.395-5.406h15.605 7v18h-2v-16zm-4 16h-2v-12h2zm-8 0h-2v-8h2zm13.712-26.585-5.712 2.142v-5.114l5.711 2.141c.173.065.289.232.289.416s-.116.351-.288.415zm-7.712-1.415h-20v-2h20zm-25 4c-1.654 0-3-1.346-3-3s1.346-3 3-3h3v6zm0-8c-2.757 0-5 2.243-5 5s2.243 5 5 5h11.778c-1.861 3.638-5.624 6-9.778 6-6.065 0-11-4.935-11-11s4.935-11 11-11c4.153 0 7.917 2.362 9.778 6zm5 8v-2h20v2zm21.181 2 2.819-1.057v2.057c0 .352.072.686.184 1h-11.708c.29-.643.53-1.314.741-2zm-39.181-5c0-8.271 6.729-15 15-15 6.395 0 12.028 4.052 14.125 10h-2.145c-2.009-4.811-6.731-8-11.98-8-7.168 0-13 5.832-13 13s5.832 13 13 13c5.249 0 9.971-3.189 11.98-8h2.145c-2.097 5.948-7.73 10-14.125 10-8.271 0-15-6.729-15-15zm15 17c.676 0 1.341-.054 2-.132v3.132c0 .552-.449 1-1 1h-2c-.551 0-1-.448-1-1v-3.128c.657.077 1.322.128 2 .128zm3 23c0 1.654-1.346 3-3 3s-3-1.346-3-3v-16c0-.552.449-1 1-1h1 2 1c.551 0 1 .448 1 1zm40-6c0 2.757-2.243 5-5 5h-33v-6h33 4c.551 0 1 .448 1 1zm-38-3v-7c0-1.065-.562-1.997-1.401-2.529.248-.437.401-.934.401-1.471v-3.485c1.038-.252 2.041-.596 3-1.031v11.516c0 1.103.897 2 2 2h28c1.103 0 2-.897 2-2v-18h2v19c0 1.654-1.346 3-3 3z" data-original="#000000" class="active-path" data-old_color="#000000" fill="#133C6D"></path><path d="m51 53h2v2h-2z" data-original="#000000" class="active-path" data-old_color="#000000" fill="#133C6D"></path><path d="m47 53h2v2h-2z" data-original="#000000" class="active-path" data-old_color="#000000" fill="#133C6D"></path><path d="m55 53h2v2h-2z" data-original="#000000" class="active-path" data-old_color="#000000" fill="#133C6D"></path></g></g></svg> 