<?xml version="1.0" encoding="UTF-8"?> <!-- Generator: Adobe Illustrator 24.0.2, SVG Export Plug-In . SVG Version: 6.00 Build 0) --> <svg xmlns="http://www.w3.org/2000/svg" xmlns:xlink="http://www.w3.org/1999/xlink" version="1.1" id="Layer_1" x="0px" y="0px" viewBox="0 0 512 512" style="enable-background:new 0 0 512 512;" xml:space="preserve"> <style type="text/css"> .st0{fill:#ECF5DF;} .st1{fill:#133C6D;} </style> <circle class="st0" cx="376.1" cy="137.5" r="135.5"></circle> <g> <path class="st1" d="M54.6,425.9c0.3,0.5,0.7,1,1.2,1.4c0.1,0.1,0.2,0.1,0.3,0.2c33.4,37.8,80.9,60,131.3,61.5 c0.6,0.1,1.1,0.1,1.7,0c1.3,0,2.5,0,3.8,0s2.5,0,3.8,0c0.6,0.1,1.1,0.1,1.7,0c50.4-1.5,97.9-23.8,131.3-61.6 c0.1-0.1,0.1-0.1,0.2-0.1c0.5-0.4,0.9-0.9,1.2-1.5c26.5-30.5,42.1-68.9,44.3-109.3c1.1-0.3,2-0.8,2.8-1.6 c16.1-16.2,16.1-42.3,0-58.5L364,242.6c-1.4-3.8-2.9-7.5-4.6-11.2c12-7.3,24.7-13.3,37.9-18.1l91-33.1c3.1-1.1,4.7-4.6,3.6-7.7 c-0.3-0.8-0.8-1.6-1.4-2.2l-39.9-40c13.2-18.6,8.9-44.4-9.7-57.7c-14.4-10.2-33.6-10.2-48,0L353,32.7c-2.3-2.3-6.1-2.3-8.5,0 c-0.6,0.6-1.1,1.4-1.4,2.2l-33.1,91c-3.8,10.3-8.3,20.4-13.5,30c-28.9-20.1-63.1-31.2-98.3-32.2c-0.5-0.1-1-0.1-1.5,0 c-1.3,0-2.6,0-3.9,0c-1.3,0-2.6,0-3.9,0c-0.5-0.1-1,0-1.5,0c-50.4,1.5-97.9,23.7-131.3,61.5c-0.1,0.1-0.2,0.1-0.3,0.2 c-0.5,0.4-0.9,0.9-1.2,1.4C-4.9,255.5-4.9,357.3,54.6,425.9L54.6,425.9z M60,199.2c11.1,11.7,23.7,22,37.5,30.4 c-7.3,22.9-11.2,46.8-11.6,70.9H22.1C23.4,263.4,36.7,227.9,60,199.2L60,199.2z M280.1,200.6l42.6,42.6c-4.5,3.9-8.9,7.9-13.2,12.1 c-4.6,4.6-12,4.6-16.5,0c0,0,0,0,0,0l-25-25c-4.6-4.6-4.6-12,0-16.5c2.3-2.3,4.6-4.7,6.8-7.1C276.5,204.7,278.3,202.7,280.1,200.6 L280.1,200.6z M325.5,413.6c-11.1-11.8-23.7-22.1-37.5-30.5c7.3-22.9,11.1-46.7,11.5-70.7h63.8 C362.1,349.4,348.8,384.9,325.5,413.6L325.5,413.6z M186.7,356.7c-27.4,0.9-54.2,7.9-78.5,20.6c-6.4-21-9.9-42.8-10.2-64.8h88.8 L186.7,356.7z M186.7,368.7v107c-34.2-17.7-59.8-48.2-74.6-86.9C135.2,376.4,160.7,369.6,186.7,368.7L186.7,368.7z M198.7,368.6 c26.1,0.8,51.6,7.6,74.7,19.9c-14.7,38.9-40.4,69.4-74.7,87.1L198.7,368.6z M198.7,356.6v-44.2h88.8c-0.4,21.9-3.8,43.7-10.2,64.6 C253,364.4,226.2,357.4,198.7,356.6L198.7,356.6z M198.7,256.2c22.1-0.6,43.9-5.2,64.3-13.7l20.9,20.9c2.1,12.3,3.3,24.7,3.6,37.1 h-88.8L198.7,256.2z M299.5,300.4c-0.2-10-1-20.1-2.4-30c1.3,0.2,2.6,0.3,4,0.3c0.9,0,1.9-0.1,2.8-0.2c5.3-0.6,10.2-3,14-6.8 c0,0,0.1-0.1,0.1-0.1l36.7,36.7L299.5,300.4z M259.4,205.3c-7.2,7.2-9,18.3-4.4,27.4c-18,7-37,10.9-56.3,11.4v-107 c26.8,13.9,48.9,36.1,64.3,64.5C261.8,202.9,260.6,204.1,259.4,205.3z M186.7,244.1c-26.1-0.9-51.6-7.7-74.6-20 c14.8-38.8,40.4-69.2,74.6-86.9L186.7,244.1z M186.7,256.2v44.3H98c0.4-22,3.8-43.8,10.2-64.8C132.5,248.3,159.4,255.3,186.7,256.2 L186.7,256.2z M86,312.4c0.4,24.1,4.3,47.9,11.6,70.9c-13.8,8.4-26.4,18.6-37.5,30.4c-23.3-28.7-36.6-64.3-37.9-101.3H86z M67.9,422.8c10-10.7,21.3-20.1,33.8-27.9c12.9,33,33.4,60.3,60,79.5C125.7,467.6,92.8,449.6,67.9,422.8z M223.8,474.3 c26.7-19.2,47.2-46.6,60.1-79.7c12.4,7.9,23.7,17.3,33.7,28.1C292.7,449.6,259.8,467.6,223.8,474.3L223.8,474.3z M373.4,301.8 c-0.2-0.2-0.4-0.3-0.6-0.4l-45.9-45.9c5.9-5.2,12-10.1,18.4-14.7l24.3,24.3C379.3,274.9,380.9,290.2,373.4,301.8z M416.9,77 c16.2,0,29.4,13.1,29.4,29.4c0,5.4-1.5,10.7-4.3,15.3l-40.4-40.4C406.2,78.5,411.5,77,416.9,77z M321.3,130l29.9-82.2l124.3,124.3 L393.2,202c-22,8-42.6,19.4-61.2,33.6l-44.3-44.3C301.9,172.7,313.3,152,321.3,130z M271.5,192.2c-11.9-21.1-28.2-39.5-47.8-53.7 c24,4.4,46.7,13.9,66.7,27.9C284.7,175.4,278.4,184,271.5,192.2z M161.7,138.5C135,157.7,114.6,185,101.7,218 c-12.4-7.8-23.8-17.2-33.8-27.9C92.8,163.3,125.7,145.2,161.7,138.5z"></path> <path class="st1" d="M471.2,105.7c3.1,1.2,6.6-0.2,7.8-3.3c0,0,0,0,0,0c9-22.3-1.8-47.6-24.1-56.5c-10.4-4.2-22.1-4.2-32.5,0 c-3.1,1.2-4.7,4.6-3.5,7.7c1.2,3.1,4.6,4.7,7.7,3.5c0.1,0,0.2-0.1,0.3-0.1c16.1-6.5,34.4,1.3,40.9,17.4c3,7.5,3,16,0,23.5 C466.6,101,468.1,104.5,471.2,105.7C471.2,105.7,471.2,105.7,471.2,105.7z"></path> <path class="st1" d="M419.9,38.5c26.2-10.5,55.9,2.1,66.5,28.3c4.9,12.2,4.9,25.9,0,38.2c-1.3,3.1,0.2,6.6,3.3,7.8 c3.1,1.3,6.6-0.2,7.8-3.3c0,0,0-0.1,0-0.1c13-32.3-2.6-69-34.9-82.1c-15.1-6.1-32-6.1-47.1,0c-3.1,1.2-4.6,4.7-3.3,7.8 C413.3,38.3,416.8,39.8,419.9,38.5L419.9,38.5L419.9,38.5z"></path> </g> </svg> 