<?xml version="1.0" encoding="UTF-8"?> <!-- Generator: Adobe Illustrator 24.0.2, SVG Export Plug-In . SVG Version: 6.00 Build 0) --> <svg xmlns="http://www.w3.org/2000/svg" xmlns:xlink="http://www.w3.org/1999/xlink" version="1.1" id="Layer_5" x="0px" y="0px" viewBox="0 0 512 512" style="enable-background:new 0 0 512 512;" xml:space="preserve"> <style type="text/css"> .st0{fill:#ECF5DF;} .st1{fill:#133C6D;} </style> <circle class="st0" cx="138" cy="138" r="135.5"></circle> <g> <g> <path class="st1" d="M392,392h80v16h-80V392z"></path> <path class="st1" d="M424,424h16v16h-16V424z"></path> <path class="st1" d="M456,424h16v16h-16V424z"></path> <path class="st1" d="M392,424h16v16h-16V424z"></path> <path class="st1" d="M40,72h80v16H40V72z"></path> <path class="st1" d="M104,104h16v16h-16V104z"></path> <path class="st1" d="M40,104h16v16H40V104z"></path> <path class="st1" d="M72,104h16v16H72V104z"></path> <path class="st1" d="M392,285.8V232h88c13.2,0,24-10.8,24-24V32c0-13.2-10.8-24-24-24H272c-13.2,0-24,10.8-24,24v56h-96V40H8v112 h144v-48h96v16h-21.8l-7,21.9c-6.2,2-12.2,4.4-17.8,7.4l-20.4-10.5l-42.2,42.2l10.5,20.4c-2.9,5.7-5.4,11.6-7.4,17.8l-21.9,7V280 H32c-13.2,0-24,10.8-24,24v176c0,13.2,10.8,24,24,24h208c13.2,0,24-10.8,24-24v-56h96v48h144V360H360v48h-96v-16h21.8l7-21.9 c6.2-2,12.2-4.4,17.8-7.4l20.4,10.5l42.2-42.2l-10.5-20.4c2.9-5.7,5.4-11.6,7.4-17.8L392,285.8z M136,136H24V56h112V136z M376,376 h112v80H376V376z M328,256c0,37-28.1,67.5-64,71.5V304c0-13.2-10.8-24-24-24h-51.8c-2.7-7.7-4.2-15.7-4.2-24 c0-37,28.1-67.5,64-71.5V208c0,13.2,10.8,24,24,24h51.8C326.5,239.7,328,247.7,328,256z M320.6,216c2.7-18.8,14.8-34.6,31.4-42.5 v2.5c0,13.2,10.8,24,24,24s24-10.8,24-24v-2.5c16.6,7.9,28.6,23.7,31.4,42.5H320.6z M336,92.8c0-15.9,12.9-28.8,28.8-28.8h3.2 v19.1l-18.7,9.4c-5,2.5-8.8,6.5-11,11.4C336.8,100.3,336,96.6,336,92.8z M368,168.6c2.6-0.4,5.3-0.6,8-0.6s5.4,0.3,8,0.6v7.4 c0,4.4-3.6,8-8,8s-8-3.6-8-8V168.6z M413.8,103.8c-2.2-4.8-6-8.9-11-11.4L384,83.1V64h3.2c15.9,0,28.8,12.9,28.8,28.8 C416,96.6,415.2,100.3,413.8,103.8z M368,152c-8.8,0-16-7.2-16-16v-22.1c0-3,1.7-5.8,4.4-7.2l19.6-9.8l19.6,9.8 c2.7,1.4,4.4,4.1,4.4,7.2V136c0,8.8-7.2,16-16,16H368z M264,32c0-4.4,3.6-8,8-8h208c4.4,0,8,3.6,8,8v176c0,4.4-3.6,8-8,8h-32.5 c-2.8-25.4-18.9-46.8-41.2-57.2c5.9-5.8,9.6-13.9,9.6-22.8v-5.6l8.5-12.7c4.9-7.4,7.5-16,7.5-24.9c0-24.7-20.1-44.8-44.8-44.8 h-22.3C340.1,48,320,68.1,320,92.8c0,8.9,2.6,17.5,7.5,24.9l8.5,12.7v5.6c0,8.9,3.7,17,9.6,22.8c-22.2,10.4-38.3,31.8-41.2,57.2 H272c-4.4,0-8-3.6-8-8V32z M136,237.8l18.8-6l1.2-4.1c2.2-7.9,5.3-15.4,9.2-22.4l2.1-3.7l-9-17.6l25.7-25.7l17.6,9l3.8-2.1 c7-3.9,14.5-7,22.4-9.2l4.1-1.2l6-18.8H248v32.4c-44.8,4.1-80,41.8-80,87.6c0,8.2,1.2,16.2,3.4,24H136V237.8z M88,416v-40 c0-23.7,17.3-43.4,40-47.3v18.3l-18.7,9.4c-8.2,4.1-13.3,12.3-13.3,21.5V400c0,8.9,3.7,17,9.6,22.8c-4.5,2.1-8.7,4.6-12.6,7.6 C89.8,426.3,88,421.3,88,416z M128,416c-8.8,0-16-7.2-16-16v-22.1c0-3,1.7-5.8,4.4-7.2l19.6-9.8l19.6,9.8c2.7,1.4,4.4,4.1,4.4,7.2 V400c0,8.8-7.2,16-16,16H128z M136,432c6.4,0,12.6,1.1,18.3,3.1l-5.7,12.9h-25.2l-5.7-12.9C123.4,433.1,129.6,432,136,432z M141.5,464l-5.5,12.3l-5.5-12.3H141.5z M168.5,442.5c14.2,10.2,23.5,26.8,23.5,45.5h-43.7L168.5,442.5z M184,416 c0,5.3-1.8,10.3-5,14.4c-3.9-2.9-8.1-5.5-12.6-7.6c5.9-5.8,9.6-13.9,9.6-22.8v-22.1c0-9.2-5.1-17.4-13.3-21.5l-18.7-9.4v-18.3 c22.7,3.8,40,23.5,40,47.3V416z M103.5,442.5l20.2,45.5H80C80,469.3,89.3,452.7,103.5,442.5z M248,480c0,4.4-3.6,8-8,8h-32 c0-17.8-6.5-34-17.2-46.6c5.9-7.1,9.2-16,9.2-25.4v-40c0-35.3-28.7-64-64-64s-64,28.7-64,64v40c0,9.4,3.3,18.3,9.2,25.4 C70.5,454,64,470.2,64,488H32c-4.4,0-8-3.6-8-8V304c0-4.4,3.6-8,8-8h208c4.4,0,8,3.6,8,8V480z M357.2,280.2l-1.2,4.1 c-2.2,7.9-5.3,15.4-9.2,22.4l-2.1,3.7l9,17.6L328,353.7l-17.6-9l-3.7,2.1c-6.9,3.9-14.5,7-22.4,9.2l-4.1,1.2l-6,18.8H264v-32.4 c44.8-4.1,80-41.8,80-87.6c0-8.2-1.2-16.2-3.4-24H376v42.2L357.2,280.2z"></path> <path class="st1" d="M40,312h16v16H40V312z"></path> <path class="st1" d="M216,312h16v16h-16V312z"></path> <path class="st1" d="M280,40h16v16h-16V40z"></path> <path class="st1" d="M456,40h16v16h-16V40z"></path> </g> </g> </svg> 