<?xml version="1.0" encoding="UTF-8"?> <!-- Generator: Adobe Illustrator 24.0.2, SVG Export Plug-In . SVG Version: 6.00 Build 0) --> <svg xmlns="http://www.w3.org/2000/svg" xmlns:xlink="http://www.w3.org/1999/xlink" version="1.1" id="Capa_1" x="0px" y="0px" viewBox="0 0 512 512" xml:space="preserve"> <circle fill="#ECF5DF" cx="135.5" cy="138.77" r="135.5"></circle> <g> <path fill="#0261A3" d="M467.24,309.75v183.52c0,4.54-2.81,9.81-5.98,12.93c-3.2,3.15-8.53,5.81-13.07,5.81h-51.82H344.5 c-4.51,0-9.86-2.75-12.98-5.81c-3.26-3.2-5.98-8.45-5.98-13.07V309.75c-8.16-1.53-15.51-5.56-21.15-11.23 c-7.65-7.65-11.82-17.89-11.82-28.6V168.78c0-14.77,6.01-28.21,15.73-37.93c9.72-9.72,23.13-15.76,37.9-15.76h5.9 c-6.29-8.84-9.98-19.64-9.98-31.27V33.7c0-9.24,3.8-17.66,9.89-23.78C358.13,3.8,366.55,0,375.79,0h41.19 c9.24,0,17.66,3.8,23.78,9.92c6.09,6.12,9.89,14.54,9.89,23.78v50.12c0,11.62-3.68,22.42-9.98,31.27h5.9 c14.77,0,28.18,6.04,37.9,15.76c9.72,9.72,15.76,23.16,15.76,37.93v101.14c0,11.17-4.54,21.29-11.85,28.6 C482.74,304.19,475.4,308.21,467.24,309.75z M92.78,237.12c2.92-2.92,7.68-2.92,10.6,0c2.92,2.92,2.92,7.68,0,10.6l-27.16,27.18 c-2.95,2.92-7.68,2.92-10.6,0l-17.32-17.32c-2.92-2.92-2.92-7.68,0-10.6c2.95-2.92,7.68-2.92,10.63,0l11.99,11.99L92.78,237.12z M92.78,386.4c2.92-2.92,7.68-2.92,10.6,0c2.92,2.92,2.92,7.68,0,10.6l-27.16,27.18c-2.95,2.92-7.68,2.92-10.6,0l-17.32-17.32 c-2.92-2.92-2.92-7.68,0-10.6c2.95-2.92,7.68-2.92,10.63,0l11.99,11.99L92.78,386.4z M92.78,87.85c2.92-2.92,7.68-2.92,10.6,0 c2.92,2.92,2.92,7.68,0,10.6L76.23,125.6c-2.95,2.95-7.68,2.95-10.6,0l-17.32-17.29c-2.92-2.92-2.92-7.68,0-10.6 c2.95-2.92,7.68-2.92,10.63,0l11.99,11.99L92.78,87.85z M435.66,68.23c-12.22,1.98-33.42,2.35-50.68-13.32 c-5.9,3.57-15.76,7.85-27.86,6.46v22.45c0,10.8,4.42,20.61,11.54,27.72c7.11,7.14,16.95,11.56,27.72,11.56 c10.8,0,20.61-4.42,27.75-11.56c7.11-7.11,11.54-16.92,11.54-27.72L435.66,68.23z M357.11,46.26c8.48,1.53,17.38-1.22,23.81-6.83 c3.12-2.72,7.85-2.38,10.57,0.74c14.54,16.73,34.87,14.85,44.16,12.87V33.7c0-5.16-2.1-9.84-5.5-13.24 c-3.37-3.37-8.02-5.47-13.18-5.47h-41.19c-5.16,0-9.81,2.1-13.18,5.47c-3.4,3.4-5.5,8.08-5.5,13.24L357.11,46.26z M368.08,130.08 H346.2c-10.63,0-20.3,4.37-27.3,11.37c-7.26,7.29-11.4,17.04-11.4,27.33v101.11c0,6.72,2.67,13.27,7.48,18.08 c4.56,4.59,10.91,7.45,17.94,7.45h12.59V188.96c0-4.14,3.37-7.51,7.51-7.51s7.48,3.37,7.48,7.51v106.47h71.74V188.96 c0-4.14,3.35-7.51,7.48-7.51c4.14,0,7.51,3.37,7.51,7.51v106.47h12.59c7.03,0,13.35-2.86,17.94-7.45c4.62-4.59,7.45-11,7.45-18.06 V168.78c0-10.63-4.34-20.3-11.37-27.33c-7-7-16.67-11.37-27.3-11.37h-21.91c-8.25,5.07-17.91,8.02-28.29,8.02 C386.02,138.11,376.33,135.16,368.08,130.08L368.08,130.08z M161.69,380.73c-4.14,0-7.51-3.35-7.51-7.48s3.37-7.51,7.51-7.51h93.57 c4.14,0,7.48,3.37,7.48,7.51s-3.35,7.48-7.48,7.48H161.69z M161.69,444.82c-4.14,0-7.51-3.35-7.51-7.48c0-4.14,3.37-7.51,7.51-7.51 h63.13c4.14,0,7.51,3.37,7.51,7.51s-3.37,7.48-7.51,7.48H161.69z M161.69,412.79c-4.14,0-7.51-3.37-7.51-7.51s3.37-7.48,7.51-7.48 h93.57c4.14,0,7.48,3.35,7.48,7.48c0,4.14-3.35,7.51-7.48,7.51H161.69z M161.69,231.45c-4.14,0-7.51-3.35-7.51-7.48 c0-4.14,3.37-7.51,7.51-7.51h93.57c4.14,0,7.48,3.37,7.48,7.51s-3.35,7.48-7.48,7.48H161.69z M161.69,295.54 c-4.14,0-7.51-3.35-7.51-7.48c0-4.14,3.37-7.51,7.51-7.51h63.13c4.14,0,7.51,3.37,7.51,7.51s-3.37,7.48-7.51,7.48H161.69z M161.69,263.51c-4.14,0-7.51-3.37-7.51-7.51s3.37-7.48,7.51-7.48h93.57c4.14,0,7.48,3.35,7.48,7.48s-3.35,7.51-7.48,7.51H161.69z M161.69,82.18c-4.14,0-7.51-3.35-7.51-7.48c0-4.14,3.37-7.51,7.51-7.51h93.57c4.14,0,7.48,3.37,7.48,7.51s-3.35,7.48-7.48,7.48 H161.69z M161.69,146.27c-4.14,0-7.51-3.35-7.51-7.48c0-4.17,3.37-7.51,7.51-7.51h63.13c4.14,0,7.51,3.35,7.51,7.51 c0,4.14-3.37,7.48-7.51,7.48H161.69z M161.69,114.24c-4.14,0-7.51-3.37-7.51-7.51s3.37-7.48,7.51-7.48h93.57 c4.14,0,7.48,3.35,7.48,7.48s-3.35,7.51-7.48,7.51H161.69z M11.77,355.13c0-7.68,6.26-13.92,13.92-13.92H126 c7.68,0,13.95,6.24,13.95,13.92v100.32c0,7.65-6.29,13.92-13.95,13.92H25.68c-7.63,0-13.92-6.29-13.92-13.92L11.77,355.13z M124.93,356.21H26.76v98.16h98.16V356.21z M11.77,56.58c0-7.65,6.29-13.95,13.92-13.95H126c7.65,0,13.95,6.29,13.95,13.95V156.9 c0,7.65-6.29,13.92-13.95,13.92H25.68c-7.65,0-13.92-6.26-13.92-13.92L11.77,56.58z M124.93,57.66H26.76v98.16h98.16V57.66z M11.77,205.86c0-7.65,6.26-13.92,13.92-13.92H126c7.68,0,13.95,6.24,13.95,13.92v100.32c0,7.65-6.26,13.92-13.95,13.92H25.68 c-7.65,0-13.92-6.27-13.92-13.92L11.77,205.86z M124.93,206.93H26.76v98.16h98.16V206.93z M388.89,497.01V343.85 c0-4.14,3.35-7.48,7.48-7.48c4.17,0,7.51,3.35,7.51,7.48v153.16h43.96c2.18-0.4,3.97-2.01,4.39-4.2V310.43 c-37.25,0-74.47,0-111.71,0v182.38c0.42,2.18,2.21,3.8,4.39,4.2H388.89z"></path> </g> </svg> 