<?xml version="1.0" encoding="UTF-8"?> <!-- Generator: Adobe Illustrator 24.0.2, SVG Export Plug-In . SVG Version: 6.00 Build 0) --> <svg xmlns="http://www.w3.org/2000/svg" xmlns:xlink="http://www.w3.org/1999/xlink" version="1.1" id="Layer_1" x="0px" y="0px" viewBox="0 0 512 512" style="enable-background:new 0 0 512 512;" xml:space="preserve"> <style type="text/css"> .st0{fill:#ECF5DF;} .st1{fill:#133C6D;} </style> <circle class="st0" cx="138" cy="138" r="135.5"></circle> <g> <g id="Outline"> <path class="st1" d="M484.3,239.7c-3.8-12.7-17.2-19.9-29.9-16.1l-214.6,64.2c-1.2,0.4-2.3,1-3.2,1.8l-26.1,24.5 c-3.2,3-3.4,8.1-0.4,11.3c1.2,1.3,2.7,2.1,4.5,2.4l35.2,6.2c1.2,0.2,2.5,0.1,3.7-0.2l174.1-52.1l0.8,16.5l-55.3,16.6l4.6,15.3 l61.3-18.3c3.5-1.1,5.9-4.4,5.7-8l-1.2-26.7l24.7-7.4C480.8,265.8,488,252.4,484.3,239.7L484.3,239.7z M250.8,318l-17.6-3.1 l13-12.3l36.5-10.9l4.6,15.3L250.8,318z M302.6,302.4l-4.6-15.3l128.1-38.3l0.8,16.5L302.6,302.4z M468.3,250.4 c-1,1.9-2.7,3.3-4.7,3.9l-20.8,6.2L442,244l17-5.1c4.2-1.3,8.7,1.1,10,5.4C469.5,246.4,469.3,248.5,468.3,250.4z"></path> <path class="st1" d="M320,352H184V232c0-4.4-3.6-8-8-8H32c-4.4,0-8,3.6-8,8v256c0,4.4,3.6,8,8,8h288c4.4,0,8-3.6,8-8V360 C328,355.6,324.4,352,320,352z M232,368h32v32h-32V368z M88,240h32v32H88V240z M40,240h32v40c0,4.4,3.6,8,8,8h48c4.4,0,8-3.6,8-8 v-40h32v112H40V240z M88,368h32v32H88V368z M40,368h32v40c0,4.4,3.6,8,8,8h48c4.4,0,8-3.6,8-8v-40h32v112H40V368z M312,480H184 V368h32v40c0,4.4,3.6,8,8,8h48c4.4,0,8-3.6,8-8v-40h32V480z"></path> <path class="st1" d="M280,448h16v16h-16V448z"></path> <path class="st1" d="M136,448h16v16h-16V448z"></path> <path class="st1" d="M136,320h16v16h-16V320z"></path> <path class="st1" d="M152,80c0-8.8,7.2-16,16-16h48v16h-40c-4.4,0-8,3.6-8,8v120h16V96h192v128h16V88c0-4.4-3.6-8-8-8h-40V64h48 c8.8,0,16,7.2,16,16v136h16V80c0-17.7-14.3-32-32-32h-77.8l5.5-22.1c1.1-4.3-1.5-8.6-5.8-9.7c-0.6-0.2-1.3-0.2-1.9-0.2h-64 c-4.4,0-8,3.6-8,8c0,0.7,0.1,1.3,0.2,1.9l5.5,22.1H168c-17.7,0-32,14.3-32,32v128h16L152,80z M232,64h24c4.4,0,8-3.6,8-8 c0-0.7-0.1-1.3-0.2-1.9L258.2,32h43.5l-5.5,22.1c-1.1,4.3,1.5,8.6,5.8,9.7c0.6,0.2,1.3,0.2,1.9,0.2h24v16h-96L232,64z"></path> <path class="st1" d="M408,408c0,8.8-7.2,16-16,16h-48v16h48c17.7,0,32-14.3,32-32v-72h-16V408z"></path> <path class="st1" d="M392,400v-56h-16v48h-32v16h40C388.4,408,392,404.4,392,400z"></path> <path class="st1" d="M248,120c0-4.4-3.6-8-8-8h-32c-4.4,0-8,3.6-8,8v32c0,4.4,3.6,8,8,8h32c4.4,0,8-3.6,8-8V120z M232,144h-16v-16 h16V144z"></path> <path class="st1" d="M240,184h-32c-4.4,0-8,3.6-8,8v32c0,4.4,3.6,8,8,8h32c4.4,0,8-3.6,8-8v-32C248,187.6,244.4,184,240,184z M232,216h-16v-16h16V216z"></path> <path class="st1" d="M264,112h16v16h-16V112z"></path> <path class="st1" d="M264,144h96v16h-96V144z"></path> <path class="st1" d="M296,112h64v16h-64V112z"></path> <path class="st1" d="M264,184h16v16h-16V184z"></path> <path class="st1" d="M264,216h96v16h-96V216z"></path> <path class="st1" d="M296,184h64v16h-64V184z"></path> </g> </g> </svg> 