<?xml version="1.0" encoding="UTF-8"?> <!-- Generator: Adobe Illustrator 24.0.2, SVG Export Plug-In . SVG Version: 6.00 Build 0) --> <svg xmlns="http://www.w3.org/2000/svg" xmlns:xlink="http://www.w3.org/1999/xlink" version="1.1" id="Capa_1" x="0px" y="0px" viewBox="0 0 496 496" xml:space="preserve"> <circle fill="#ECF5DF" cx="136" cy="135.5" r="135.5"></circle> <g> <g> <path fill="#0261A3" d="M456,112h-48v-8c0-10.42-6.71-19.22-16-22.53V40c0-22.06-17.94-40-40-40H144c-22.06,0-40,17.94-40,40 v41.47C94.71,84.78,88,93.58,88,104v8H40c-22.06,0-40,17.94-40,40v304c0,22.06,17.94,40,40,40h416c22.06,0,40-17.94,40-40V152 C496,129.94,478.06,112,456,112z M384,96c4.42,0,8,3.58,8,8v8h-64v-8c0-4.42,3.58-8,8-8H384z M328,16h24c13.23,0,24,10.77,24,24 v40h-32V48h-16V16z M328,81.47c-9.29,3.31-16,12.11-16,22.53v8H184v-8c0-10.42-6.71-19.22-16-22.53V64h160V81.47z M184,16h128v32 H184V16z M120,40c0-13.23,10.77-24,24-24h24v32h-16v32h-32V40z M104,104c0-4.42,3.58-8,8-8h48c4.42,0,8,3.58,8,8v8h-64V104z M480,456c0,13.23-10.77,24-24,24H40c-13.23,0-24-10.77-24-24V152c0-13.23,10.77-24,24-24h8v152c0,22.06,17.94,40,40,40h24v48 h22.89c1.41,4.02,3.02,7.94,4.82,11.73l-16.17,16.16l56.57,56.57l16.16-16.17c3.78,1.8,7.7,3.42,11.73,4.82V464h80v-22.89 c4.02-1.41,7.94-3.02,11.73-4.82l16.16,16.17l56.57-56.57l-16.17-16.16c1.8-3.78,3.42-7.7,4.82-11.73H384v-48h24 c22.06,0,40-17.94,40-40V160h-16v120c0,13.23-10.77,24-24,24h-24v-16h-22.89c-1.41-4.02-3.02-7.94-4.82-11.73l16.17-16.16 l-56.57-56.57l-16.16,16.17c-3.78-1.8-7.7-3.42-11.73-4.82V192h-80v22.89c-4.02,1.41-7.94,3.02-11.73,4.82l-16.16-16.17 l-56.57,56.57l16.17,16.16c-1.8,3.78-3.42,7.7-4.82,11.73H112v16H88c-13.23,0-24-10.77-24-24V128h368v16h16v-16h8 c13.23,0,24,10.77,24,24V456z M146.17,260.12l33.94-33.94l13.17,13.17l5.25-2.84c6.13-3.32,12.78-6.06,19.75-8.13l5.72-1.7V208h48 v18.67l5.72,1.7c6.98,2.07,13.62,4.81,19.75,8.13l5.25,2.84l13.17-13.17l33.94,33.94l-13.17,13.17l2.84,5.25 c3.32,6.13,6.06,12.78,8.13,19.75l1.7,5.71H368v48h-18.67l-1.7,5.72c-2.07,6.98-4.81,13.62-8.13,19.75l-2.84,5.25l13.17,13.17 l-33.94,33.94l-13.17-13.17l-5.25,2.84c-6.13,3.32-12.78,6.06-19.75,8.13l-5.71,1.7V448h-48v-18.67l-5.72-1.7 c-6.98-2.07-13.62-4.81-19.75-8.13l-5.25-2.84l-13.17,13.17l-33.94-33.94l13.17-13.17l-2.84-5.25 c-3.32-6.13-6.06-12.78-8.13-19.75l-1.7-5.71H128v-48h18.67l1.7-5.72c2.07-6.98,4.81-13.62,8.13-19.75l2.84-5.25L146.17,260.12z"></path> </g> </g> <g> <g> <path fill="#0261A3" d="M248,240c-48.52,0-88,39.48-88,88s39.48,88,88,88s88-39.48,88-88S296.52,240,248,240z M256,399.53V384h-16 v15.53c-33.32-3.7-59.82-30.21-63.53-63.53H192v-16h-15.53c3.7-33.32,30.21-59.82,63.53-63.53V272h16v-15.53 c33.32,3.7,59.82,30.21,63.53,63.53H304v16h15.53C315.82,369.32,289.32,395.82,256,399.53z"></path> </g> </g> <g> <g> <polygon fill="#0261A3" points="256,324.69 256,288 240,288 240,331.31 274.34,365.66 285.66,354.34 "></polygon> </g> </g> <g> <g> <rect x="400" y="336" fill="#0261A3" width="16" height="16"></rect> </g> </g> <g> <g> <rect x="432" y="336" fill="#0261A3" width="16" height="16"></rect> </g> </g> <g> <g> <rect x="80" y="336" fill="#0261A3" width="16" height="16"></rect> </g> </g> <g> <g> <rect x="48" y="336" fill="#0261A3" width="16" height="16"></rect> </g> </g> </svg> 