<?xml version="1.0" encoding="UTF-8"?> <svg xmlns="http://www.w3.org/2000/svg" xmlns:xlink="http://www.w3.org/1999/xlink" xmlns:svgjs="http://svgjs.com/svgjs" version="1.1" width="512" height="512" x="0" y="0" viewBox="0 0 512 512" style="enable-background:new 0 0 512 512" xml:space="preserve" class=""><g><g xmlns="http://www.w3.org/2000/svg" id="XMLID_3242_"><g id="XMLID_415_"><path id="XMLID_1193_" d="m489.14 113.305c9.968-8.026 16.363-20.319 16.363-34.083v-12.303c0-24.125-19.627-43.752-43.751-43.752-24.125 0-43.752 19.627-43.752 43.752v12.304c0 11.947 4.818 22.786 12.608 30.69-12.363 6.885-21.991 18.436-26.106 32.593-4.421 15.21-18.572 25.833-34.412 25.833h-12.09v-21.012c0-31.842-25.905-57.747-57.747-57.747h-5.362c5.652-7.86 8.994-17.487 8.994-27.885v-13.81c0-26.404-21.481-47.885-47.885-47.885s-47.885 21.481-47.885 47.885v13.811c0 10.398 3.342 20.025 8.994 27.885h-5.362c-31.842 0-57.747 25.905-57.747 57.747v21.012h-12.09c-15.84 0-29.991-10.623-34.412-25.833-4.115-14.157-13.743-25.708-26.106-32.593 7.79-7.905 12.608-18.744 12.608-30.691v-12.304c0-24.125-19.627-43.752-43.752-43.752s-43.751 19.627-43.751 43.752v12.304c0 13.764 6.395 26.056 16.363 34.083-13.831 9.965-22.86 26.196-22.86 44.507v157.023c0 11.051 3.642 21.267 9.786 29.514-5.423.114-9.786 4.539-9.786 9.989v147.661c0 5.522 4.477 10 10 10h88.063c3.53 0 6.626-1.834 8.406-4.596 5.198 2.922 11.187 4.596 17.563 4.596s12.365-1.675 17.563-4.596c1.78 2.762 4.876 4.596 8.406 4.596h56c3.403 0 6.404-1.703 8.21-4.3 4.988 2.739 10.709 4.3 16.79 4.3 9.786 0 18.642-4.042 25-10.539 6.358 6.497 15.214 10.539 25 10.539 6.08 0 11.802-1.561 16.79-4.3 1.806 2.597 4.808 4.3 8.21 4.3h56c3.53 0 6.626-1.834 8.406-4.596 5.198 2.922 11.187 4.596 17.563 4.596s12.365-1.675 17.563-4.596c1.78 2.762 4.876 4.596 8.406 4.596h88.061c5.523 0 10-4.478 10-10v-147.661c0-5.45-4.363-9.874-9.786-9.989 6.144-8.247 9.786-18.462 9.786-29.514v-157.023c0-18.311-9.029-34.542-22.86-44.508zm-51.14-46.386c0-13.097 10.655-23.752 23.752-23.752s23.751 10.655 23.751 23.752v12.304c0 13.097-10.655 23.751-23.752 23.751s-23.751-10.655-23.751-23.751zm-14.293 81.169c4.298-14.787 18.055-25.114 33.454-25.114 19.21 0 34.839 15.629 34.839 34.839v118.526h-54v-54c0-.652-.067-1.287-.186-1.904 10.45-6.987 19.059-16.75 24.574-28.518 2.344-5.001.19-10.955-4.811-13.299-5.002-2.344-10.955-.188-13.299 4.811-8.231 17.563-26.083 28.91-45.478 28.91h-59.8v-24h31.09c24.681 0 46.728-16.552 53.617-40.251zm-329.707 128.251v-44h324v44zm134.115-214.644v-13.81c0-15.376 12.509-27.885 27.885-27.885s27.885 12.509 27.885 27.885v13.811c0 15.376-12.509 27.885-27.885 27.885s-27.885-12.51-27.885-27.886zm-54.115 85.632c0-20.813 16.933-37.747 37.747-37.747h88.507c20.813 0 37.747 16.934 37.747 37.747v21.012h-9c-5.523 0-10 4.478-10 10v34h-126.001v-34c0-5.522-4.477-10-10-10h-9zm-147.503-80.408c0-13.097 10.655-23.752 23.751-23.752 13.097 0 23.752 10.655 23.752 23.752v12.304c0 13.097-10.655 23.751-23.752 23.751s-23.751-10.655-23.751-23.751zm-6.497 90.894c0-19.21 15.628-34.839 34.839-34.839 15.399 0 29.156 10.327 33.454 25.114 6.889 23.699 28.937 40.251 53.617 40.251h31.09v24h-59.801c-19.396 0-37.247-11.348-45.478-28.91-2.344-5.001-8.297-7.158-13.299-4.811-5 2.344-7.154 8.298-4.811 13.299 5.515 11.767 14.124 21.531 24.574 28.518-.119.617-.186 1.253-.186 1.904v54h-53.999zm68.063 334.187h-68.063v-127.661h68.063zm35.968 0c-8.805 0-15.969-7.163-15.969-15.969v-121.692c0-5.522-4.477-10-10-10h-48.56c-16.267 0-29.502-13.235-29.502-29.503v-18.497h77.333c23.526 0 42.667 19.141 42.667 42.667v137.025c0 8.806-7.164 15.969-15.969 15.969zm71.969 0h-36v-195.661h36zm156 0h-36v-65.33c0-5.522-4.477-10-10-10s-10 4.478-10 10v50.33c0 8.271-6.729 15-15 15s-15-6.729-15-15v-129.822c0-5.522-4.477-10-10-10s-10 4.478-10 10v129.822c0 8.271-6.729 15-15 15s-15-6.729-15-15v-180.661h80v40.331c0 5.522 4.477 10 10 10s10-4.478 10-10v-40.331h36zm35.969 0c-8.805 0-15.969-7.163-15.969-15.969v-137.025c0-23.526 19.14-42.667 42.667-42.667h77.333v18.497c0 16.268-13.235 29.503-29.503 29.503h-48.56c-5.523 0-10 4.478-10 10v121.692c.001 8.806-7.163 15.969-15.968 15.969zm104.031 0h-68.063v-127.661h68.063z" fill="#133c6d" data-original="#000000" style="" class=""></path><path id="XMLID_1232_" d="m306 371.67c-2.63 0-5.21 1.07-7.07 2.93s-2.93 4.44-2.93 7.07 1.07 5.21 2.93 7.07c1.86 1.859 4.44 2.93 7.07 2.93s5.21-1.07 7.07-2.93 2.93-4.44 2.93-7.07-1.07-5.21-2.93-7.07-4.44-2.93-7.07-2.93z" fill="#133c6d" data-original="#000000" style="" class=""></path></g></g></g></svg> 