<?xml version="1.0" encoding="UTF-8"?> <svg xmlns="http://www.w3.org/2000/svg" height="512px" viewBox="0 -68 481.00097 481" width="512px"><g><path d="m316.746094 34.871094c0-18.347656-14.21875-33.558594-32.527344-34.792969-18.304688-1.234375-34.4375 11.929687-36.902344 30.113281-2.464844 18.179688 9.582032 35.164063 27.558594 38.84375v69.785156c-16.265625 3.335938-27.925781 17.671876-27.871094 34.277344.050782 16.601563 11.804688 30.867188 28.089844 34.09375l-.199219 69.742188c-17.535156 3.582031-29.507812 19.859375-27.710937 37.664062 1.796875 17.808594 16.78125 31.363282 34.675781 31.371094 17.898437.007812 32.894531-13.53125 34.710937-31.335938 1.8125-17.804687-10.144531-34.089843-27.675781-37.691406l.199219-69.835937c16.164062-3.421875 27.707031-17.714844 27.652344-34.234375-.050782-16.519532-11.6875-30.734375-27.871094-34.050782v-69.785156c16.210938-3.34375 27.851562-17.609375 27.871094-34.164062zm-55.746094 0c0-11.527344 9.347656-20.875 20.875-20.875s20.871094 9.347656 20.871094 20.875-9.34375 20.871094-20.871094 20.871094c-11.523438-.015626-20.859375-9.351563-20.875-20.871094zm41.746094 276.234375c0 11.527343-9.34375 20.871093-20.871094 20.871093s-20.875-9.34375-20.875-20.871093c0-11.53125 9.347656-20.875 20.875-20.875 11.519531.015625 20.855469 9.351562 20.871094 20.875zm0-138.117188c0 11.527344-9.34375 20.871094-20.871094 20.871094s-20.875-9.34375-20.875-20.871094c0-11.53125 9.347656-20.875 20.875-20.875 11.519531.015625 20.855469 9.351563 20.871094 20.875zm0 0" data-original="#000000" class="active-path" data-old_color="#000000" fill="#133C6D"></path><path d="m341.753906 68.40625h90.648438c3.863281 0 7-3.132812 7-7v-53.074219c0-3.863281-3.136719-7-7-7h-90.648438c-3.867187 0-7 3.136719-7 7v53.074219c0 3.867188 3.132813 7 7 7zm7-53.074219h76.648438v39.074219h-76.648438zm0 0" data-original="#000000" class="active-path" data-old_color="#000000" fill="#133C6D"></path><path d="m474 139.449219h-132.246094c-3.867187 0-7 3.136719-7 7v53.074219c0 3.867187 3.132813 7 7 7h132.246094c3.867188 0 7-3.132813 7-7v-53.074219c0-3.863281-3.132812-7-7-7zm-7 53.074219h-118.246094v-39.074219h118.246094zm0 0" data-original="#000000" class="active-path" data-old_color="#000000" fill="#133C6D"></path><path d="m432.402344 277.566406h-90.648438c-3.867187 0-7 3.136719-7 7v53.074219c0 3.867187 3.132813 7 7 7h90.648438c3.863281 0 7-3.132813 7-7v-53.074219c0-3.863281-3.136719-7-7-7zm-7 53.074219h-76.648438v-39.074219h76.648438zm0 0" data-original="#000000" class="active-path" data-old_color="#000000" fill="#133C6D"></path><path d="m176.507812 148.652344c-1.132812-2.480469-3.597656-4.078125-6.324218-4.097656h-.050782c-2.707031 0-5.175781 1.5625-6.328124 4.011718l-14.839844 31.460938-26.402344-53.375v-30.425782h55.902344c2.757812 0 5.257812-1.621093 6.386718-4.136718 1.128907-2.515625.671876-5.460938-1.164062-7.519532l-19.398438-21.765624 19.398438-21.765626c1.835938-2.058593 2.292969-5.003906 1.164062-7.523437-1.128906-2.515625-3.628906-4.136719-6.386718-4.136719h-62.902344c-3.867188 0-7 3.136719-7 7v90.269532l-25.042969 50.636718-13.300781-28.679687c-1.144531-2.476563-3.625-4.058594-6.351562-4.058594h-.023438c-2.734375.011719-5.214844 1.613281-6.347656 4.101563l-56.867188 125.070312c-.984375 2.167969-.804687 4.6875.484375 6.6875 1.289063 2.003906 3.507813 3.210938 5.886719 3.210938h23.933594l-6.367188 12.871093c-1.074218 2.167969-.949218 4.738281.328125 6.792969 1.277344 2.054688 3.523438 3.304688 5.945313 3.304688h169.449218c2.421876 0 4.667969-1.25 5.945313-3.304688s1.402344-4.625.332031-6.792969l-6.367187-12.871093h26.800781c2.382812 0 4.597656-1.210938 5.886719-3.214844 1.289062-2 1.472656-4.519532.484375-6.6875zm-53.945312-105.273438h40.285156l-13.160156 14.769532c-2.367188 2.652343-2.367188 6.660156 0 9.3125l13.160156 14.765624h-40.285156zm-104.6875 226.238282 46.054688-101.292969 11.625 25.070312-37.699219 76.222657zm24.234375 22.976562 73.453125-148.515625 73.457031 148.515625zm151.164063-22.976562-36.386719-73.574219 13.128906-27.839844 46.113281 101.414063zm0 0" data-original="#000000" class="active-path" data-old_color="#000000" fill="#133C6D"></path></g></svg> 