<?xml version="1.0" encoding="UTF-8"?> <svg xmlns="http://www.w3.org/2000/svg" height="512px" viewBox="-53 0 512 512" width="512px"><g><path d="m202.910156 446.019531c-12.929687 0-23.449218 10.523438-23.449218 23.453125 0 12.929688 10.519531 23.453125 23.449218 23.453125 12.933594 0 23.453125-10.523437 23.453125-23.453125 0-12.929687-10.519531-23.453125-23.453125-23.453125zm0 31.90625c-4.660156 0-8.449218-3.792969-8.449218-8.453125s3.792968-8.453125 8.449218-8.453125c4.660156 0 8.453125 3.792969 8.453125 8.453125s-3.792969 8.453125-8.453125 8.453125zm0 0" data-original="#000000" class="active-path" data-old_color="#000000" fill="#133C6D"></path><path d="m180.054688 50.027344h45.714843c4.140625 0 7.5-3.359375 7.5-7.5s-3.359375-7.5-7.5-7.5h-45.714843c-4.144532 0-7.5 3.359375-7.5 7.5s3.355468 7.5 7.5 7.5zm0 0" data-original="#000000" class="active-path" data-old_color="#000000" fill="#133C6D"></path><path d="m356.324219 276.726562c-4.140625 0-7.5 3.355469-7.5 7.5v142.71875h-291.828125v-142.71875c0-4.144531-3.355469-7.5-7.5-7.5-4.140625 0-7.5 3.355469-7.5 7.5v186.175782c0 22.9375 18.664062 41.597656 41.601562 41.597656h238.628906c22.9375 0 41.597657-18.660156 41.597657-41.597656v-186.175782c0-4.144531-3.355469-7.5-7.5-7.5zm-34.097657 220.273438h-238.628906c-14.667968 0-26.601562-11.933594-26.601562-26.597656v-28.457032h291.828125v28.457032c0 14.664062-11.929688 26.597656-26.597657 26.597656zm0 0" data-original="#000000" class="active-path" data-old_color="#000000" fill="#133C6D"></path><path d="m405.824219 135.371094c0-.046875 0-.09375 0-.136719 0-.015625 0-.027344 0-.042969-.003907-.050781-.003907-.097656-.007813-.148437 0-.027344-.003906-.054688-.003906-.078125 0-.023438-.003906-.046875-.003906-.070313-.097656-1.492187-.632813-2.867187-1.480469-3.992187l-40.507813-55.789063v-33.511719c0-22.941406-18.660156-41.601562-41.597656-41.601562h-238.621094c-22.9375 0-41.597656 18.660156-41.597656 41.601562v33.511719l-40.574218 55.875v.003907c-.808594 1.113281-1.320313 2.453124-1.414063 3.910156 0 .019531 0 .035156-.0039062.054687 0 .027344 0 .058594-.0039063.089844 0 .042969-.00390625.082031-.00390625.125 0 .023437 0 .046875-.00390625.066406v.125.03125 31.519531c0 24.140626 18.457031 44.050782 42 46.359376v40.949218c0 4.140625 3.359375 7.5 7.5 7.5s7.5-3.359375 7.5-7.5v-41.902344c11.957031-2.742187 22.171875-10.097656 28.664062-20.085937 8.316407 12.789063 22.730469 21.261719 39.085938 21.261719s30.769531-8.472656 39.082031-21.261719c8.3125 12.792969 22.722657 21.265625 39.078125 21.265625 16.359375 0 30.769532-8.472656 39.085938-21.261719 8.3125 12.789063 22.726562 21.261719 39.082031 21.261719s30.769531-8.472656 39.082031-21.261719c6.492188 9.988281 16.707032 17.34375 28.664063 20.085938v41.902343c0 4.140626 3.359375 7.5 7.5 7.5 4.144531 0 7.5-3.359374 7.5-7.5v-40.949218c23.542969-2.308594 42-22.21875 42-46.359375v-31.519531c0-.011719 0-.019532 0-.027344zm-80.75-7.476563-5.433594-12.46875c-1.652344-3.796875-6.074219-5.53125-9.871094-3.878906s-5.535156 6.074219-3.878906 9.871094l2.820313 6.480469h-60.226563l-6.222656-42.84375h47.785156l3.859375 8.863281c1.65625 3.800781 6.074219 5.535156 9.871094 3.882812 3.796875-1.65625 5.535156-6.074219 3.878906-9.875l-1.25-2.871093h46.097656l31.105469 42.839843zm-146.355469-42.839843h48.386719l6.222656 42.839843h-60.832031zm-95.117188-70.054688h238.621094c14.667969 0 26.601563 11.933594 26.601563 26.601562v28.453126h-115.160157c-.015624 0-.03125 0-.046874 0h-61.300782c-.0625 0-.125 0-.1875 0h-115.125v-28.453126c0-14.667968 11.929688-26.601562 26.597656-26.601562zm-30.28125 70.054688h46.09375l-1.269531 2.917968c-1.65625 3.796875.082031 8.214844 3.878907 9.871094.976562.425781 1.992187.625 2.992187.625 2.894531 0 5.648437-1.683594 6.878906-4.503906l3.882813-8.910156h47.785156l-6.222656 42.84375h-60.226563l2.566407-5.894532c1.652343-3.796875-.082032-8.21875-3.878907-9.871094-3.800781-1.65625-8.21875.082032-9.875 3.878907l-5.175781 11.882812h-58.535156zm-6.738281 113.445312c-17.417969 0-31.585937-14.167969-31.585937-31.582031v-24.023438h63.167968v24.023438c0 17.414062-14.167968 31.582031-31.582031 31.582031zm78.164063 0c-17.414063 0-31.582032-14.167969-31.582032-31.582031v-24.023438h63.164063v24.023438c0 17.414062-14.167969 31.582031-31.582031 31.582031zm78.164062 0c-17.414062 0-31.582031-14.167969-31.582031-31.582031v-24.023438h63.167969v24.023438c0 17.414062-14.167969 31.582031-31.585938 31.582031zm78.167969 0c-17.414063 0-31.582031-14.167969-31.582031-31.582031v-24.023438h63.164062v24.023438c0 17.414062-14.167968 31.582031-31.582031 31.582031zm109.746094-31.582031c0 17.414062-14.167969 31.582031-31.582031 31.582031-17.414063 0-31.582032-14.167969-31.582032-31.582031v-24.023438h63.164063zm0 0" data-original="#000000" class="active-path" data-old_color="#000000" fill="#133C6D"></path><path d="m225.320312 342.078125c6.890626 0 13.160157-4.332031 15.59375-10.78125l11.777344-31.164063c1.292969-3.425781.820313-7.269531-1.261718-10.28125-2.082032-3.011718-5.507813-4.808593-9.167969-4.808593h-44.929688c-4.140625 0-7.5 3.359375-7.5 7.5s3.359375 7.5 7.5 7.5h39.355469l-9.804688 25.953125c-.242187.648437-.871093 1.082031-1.5625 1.082031h-35.652343c-.785157 0-1.476563-.558594-1.636719-1.332031l-7.578125-36.222656c-1.285156-6.140626-6.769531-10.597657-13.042969-10.597657h-7.5c-4.140625 0-7.5 3.359375-7.5 7.5 0 4.144531 3.359375 7.5 7.5 7.5h6.140625l7.300781 34.894531c1.605469 7.683594 8.46875 13.257813 16.320313 13.257813zm0 0" data-original="#000000" class="active-path" data-old_color="#000000" fill="#133C6D"></path><path d="m190.703125 344.121094h-1.597656c-4.144531 0-7.5 3.359375-7.5 7.5 0 4.144531 3.355469 7.5 7.5 7.5h1.597656c4.144531 0 7.5-3.355469 7.5-7.5 0-4.140625-3.355469-7.5-7.5-7.5zm0 0" data-original="#000000" class="active-path" data-old_color="#000000" fill="#133C6D"></path><path d="m216.71875 344.121094h-1.601562c-4.140626 0-7.5 3.359375-7.5 7.5 0 4.144531 3.359374 7.5 7.5 7.5h1.601562c4.144531 0 7.5-3.355469 7.5-7.5 0-4.140625-3.355469-7.5-7.5-7.5zm0 0" data-original="#000000" class="active-path" data-old_color="#000000" fill="#133C6D"></path><path d="m297.410156 313.378906c0-52.109375-42.390625-94.5-94.5-94.5-52.105468 0-94.5 42.390625-94.5 94.5 0 52.105469 42.394532 94.5 94.5 94.5 52.109375 0 94.5-42.394531 94.5-94.5zm-174 0c0-43.835937 35.664063-79.5 79.5-79.5 43.839844 0 79.5 35.664063 79.5 79.5 0 43.835938-35.660156 79.5-79.5 79.5-43.835937 0-79.5-35.664062-79.5-79.5zm0 0" data-original="#000000" class="active-path" data-old_color="#000000" fill="#133C6D"></path></g></svg> 