<?xml version="1.0" encoding="UTF-8"?> <svg xmlns="http://www.w3.org/2000/svg" height="512px" viewBox="0 0 60 60" width="512px"><g><g id="Page-1" fill="none" fill-rule="evenodd"><g id="006---Web-Idea" fill="rgb(0,0,0)" fill-rule="nonzero"><path id="Shape" d="m57 0h-54c-1.65685425 0-3 1.34314575-3 3v44c0 1.6568542 1.34314575 3 3 3h20v1c.002145.7113268.3832487 1.3675874 1 1.722v3.278c0 2.209139 1.790861 4 4 4h4c2.209139 0 4-1.790861 4-4v-3.278c.6167513-.3544126.997855-1.0106732 1-1.722v-1h20c1.6568542 0 3-1.3431458 3-3v-44c0-1.65685425-1.3431458-3-3-3zm-54 2h54c.5522847 0 1 .44771525 1 1v5h-56v-5c0-.55228475.44771525-1 1-1zm22 46h10v3h-10zm9.094-2h-1.094v-9.184c.320257.1184378.6585603.1806856 1 .184 1.6568542 0 3-1.3431458 3-3s-1.3431458-3-3-3-3 1.3431458-3 3v12h-2v-12c0-1.6568542-1.3431458-3-3-3s-3 1.3431458-3 3 1.3431458 3 3 3c.3414397-.0033144.679743-.0655622 1-.184v9.184h-1.094c-.416-2.165-2.16-3.613-3.993-5.135-2.771-2.3-5.913-4.908-5.913-10.865-.0847985-3.7383821 1.3629501-7.3488192 4.0070655-9.9929345 2.6441153-2.6441154 6.2545524-4.091864 9.9929345-4.0070655 3.7383821-.0847985 7.3488192 1.3629501 9.9929345 4.0070655 2.6441154 2.6441153 4.091864 6.2545524 4.0070655 9.9929345 0 5.957-3.142 8.565-5.913 10.865-1.833 1.522-3.577 2.97-3.993 5.135zm-1.094-12c0-.5522847.4477153-1 1-1s1 .4477153 1 1-.4477153 1-1 1-1-.4477153-1-1zm-6 0c0 .5522847-.4477153 1-1 1s-1-.4477153-1-1 .4477153-1 1-1 1 .4477153 1 1zm7 22c0 1.1045695-.8954305 2-2 2h-4c-1.1045695 0-2-.8954305-2-2v-3h8zm23-8h-20c-.0017883-.6805663-.349534-1.3135161-.923-1.68.321-1.45 1.654-2.56 3.287-3.916 2.957-2.454 6.636-5.504 6.636-12.404.0969537-4.2724487-1.557603-8.3986866-4.5794582-11.4205418s-7.1480931-4.6764119-11.4205418-4.5794582c-4.2724487-.0969537-8.3986866 1.557603-11.4205418 4.5794582s-4.6764119 7.1480931-4.5794582 11.4205418c0 6.9 3.679 9.95 6.636 12.4 1.633 1.356 2.966 2.466 3.287 3.916-.5746603.3672503-.9225733 1.0020124-.923 1.684h-20c-.55228475 0-1-.4477153-1-1v-37h56v37c0 .5522847-.4477153 1-1 1z" data-original="#000000" class="active-path" data-old_color="#000000" fill="#133C6D"></path><circle id="Oval" cx="5" cy="5" r="1" data-original="#000000" class="active-path" data-old_color="#000000" fill="#133C6D"></circle><circle id="Oval" cx="9" cy="5" r="1" data-original="#000000" class="active-path" data-old_color="#000000" fill="#133C6D"></circle><circle id="Oval" cx="13" cy="5" r="1" data-original="#000000" class="active-path" data-old_color="#000000" fill="#133C6D"></circle><path id="Shape" d="m53 6h2c.5522847 0 1-.44771525 1-1s-.4477153-1-1-1h-2c-.5522847 0-1 .44771525-1 1s.4477153 1 1 1z" data-original="#000000" class="active-path" data-old_color="#000000" fill="#133C6D"></path><path id="Shape" d="m35 6h14c.5522847 0 1-.44771525 1-1s-.4477153-1-1-1h-14c-.5522847 0-1 .44771525-1 1s.4477153 1 1 1z" data-original="#000000" class="active-path" data-old_color="#000000" fill="#133C6D"></path><path id="Shape" d="m30 18c-.7207487-.0010091-1.4405176.0531491-2.153.162-.5157021.080616-.8826573.5443098-.8426044 1.0647359.040053.5204261.4736398.9225087.9956044.9232641.051523-.0001793.1029745-.0038544.154-.011.610801-.0941054 1.2279942-.1405788 1.846-.139.5522847 0 1-.4477153 1-1s-.4477153-1-1-1z" data-original="#000000" class="active-path" data-old_color="#000000" fill="#133C6D"></path><path id="Shape" d="m23.475 19.748c-3.4656527 2.2492751-5.5332242 6.1208262-5.475 10.252 0 .5522847.4477153 1 1 1s1-.4477153 1-1c-.0606774-3.4381174 1.6479794-6.6666292 4.525-8.55.3208266-.1794485.5173326-.5204516.5117242-.8880112s-.2124268-.7024085-.538579-.8719852c-.3261522-.1695766-.7190478-.1465375-1.0231452.0599964z" data-original="#000000" class="active-path" data-old_color="#000000" fill="#133C6D"></path><path id="Shape" d="m13.18 19.134-2.6-1.5c-.47786-.2716903-1.08542045-.1067416-1.36027453.3693057s-.11393908 1.0846885.36027453 1.3626943l2.6 1.5c.3095704.1814844.6926495.1831833 1.0038174.0044519.311168-.1787315.5027136-.5104885.5019247-.8693336s-.1937913-.6897567-.5057421-.8671183z" data-original="#000000" class="active-path" data-old_color="#000000" fill="#133C6D"></path><path id="Shape" d="m11 30c0-.5522847-.4477153-1-1-1h-3c-.55228475 0-1 .4477153-1 1s.44771525 1 1 1h3c.5522847 0 1-.4477153 1-1z" data-original="#000000" class="active-path" data-old_color="#000000" fill="#133C6D"></path><path id="Shape" d="m12.18 39.134-2.6 1.5c-.31195078.1773616-.50495322.5082732-.5057421.8671183-.00078889.3588451.19075673.6906021.50192468.8693336.31116795.1787314.69424702.1770325 1.00381742-.0044519l2.6-1.5c.3119508-.1773616.5049532-.5082732.5057421-.8671183s-.1907567-.6906021-.5019247-.8693336c-.3111679-.1787314-.694247-.1770325-1.0038174.0044519z" data-original="#000000" class="active-path" data-old_color="#000000" fill="#133C6D"></path><path id="Shape" d="m50.419 40.634-2.6-1.5c-.3095704-.1814844-.6926495-.1831833-1.0038174-.0044519-.311168.1787315-.5027136.5104885-.5019247.8693336s.1937913.6897567.5057421.8671183l2.6 1.5c.47786.2716903 1.0854205.1067416 1.3602745-.3693057.2748541-.4760473.1139391-1.0846885-.3602745-1.3626943z" data-original="#000000" class="active-path" data-old_color="#000000" fill="#133C6D"></path><path id="Shape" d="m53 29h-3c-.5522847 0-1 .4477153-1 1s.4477153 1 1 1h3c.5522847 0 1-.4477153 1-1s-.4477153-1-1-1z" data-original="#000000" class="active-path" data-old_color="#000000" fill="#133C6D"></path><path id="Shape" d="m47.321 21c.1755887.0003718.3481299-.0458692.5-.134l2.6-1.5c.4742136-.2780058.6351286-.886647.3602745-1.3626943-.274854-.4760473-.8824145-.640996-1.3602745-.3693057l-2.6 1.5c-.3919413.2263139-.5830208.6876562-.4658809 1.1248223.1171398.4371661.5132928.7411578.9658809.7411777z" data-original="#000000" class="active-path" data-old_color="#000000" fill="#133C6D"></path></g></g></g></svg> 